<mxfile host="app.diagrams.net" agent="Mozilla/5.0 (Windows NT 10.0; Win64; x64) AppleWebKit/537.36 (KHTML, like Gecko) Chrome/136.0.0.0 Safari/537.36" version="27.1.0">
  <diagram name="Page-1" id="CVPNebO4I3Dp9R8wXKXl">
    <mxGraphModel grid="1" page="1" gridSize="10" guides="1" tooltips="1" connect="1" arrows="1" fold="1" pageScale="1" pageWidth="850" pageHeight="1100" math="0" shadow="0">
      <root>
        <mxCell id="0" />
        <mxCell id="1" parent="0" />
        <mxCell id="884JPYB7_QhmBYuowr3j-41" style="edgeStyle=orthogonalEdgeStyle;rounded=0;orthogonalLoop=1;jettySize=auto;html=1;exitX=1;exitY=0.5;exitDx=0;exitDy=0;entryX=0;entryY=0.5;entryDx=0;entryDy=0;" edge="1" parent="1" source="Jbsk64EGyXA3VtT-6oXt-2" target="884JPYB7_QhmBYuowr3j-40">
          <mxGeometry relative="1" as="geometry" />
        </mxCell>
        <mxCell id="Jbsk64EGyXA3VtT-6oXt-2" value="tart" style="ellipse;html=1;shape=startState;fillColor=#000000;strokeColor=#ff0000;" vertex="1" parent="1">
          <mxGeometry x="-1690" y="-1315" width="30" height="30" as="geometry" />
        </mxCell>
        <mxCell id="884JPYB7_QhmBYuowr3j-12" style="edgeStyle=orthogonalEdgeStyle;rounded=0;orthogonalLoop=1;jettySize=auto;html=1;exitX=1;exitY=0.5;exitDx=0;exitDy=0;entryX=0;entryY=0.5;entryDx=0;entryDy=0;" edge="1" parent="1" source="884JPYB7_QhmBYuowr3j-1" target="884JPYB7_QhmBYuowr3j-4">
          <mxGeometry relative="1" as="geometry" />
        </mxCell>
        <mxCell id="884JPYB7_QhmBYuowr3j-1" value="&lt;span style=&quot;font-family: Helvetica, &amp;quot;VP Default&amp;quot;; font-weight: 700; text-align: left; background-color: rgb(248, 249, 250);&quot;&gt;&amp;nbsp;WhatsApp displays&amp;nbsp; &amp;nbsp; &amp;nbsp; &amp;nbsp; &amp;nbsp; &amp;nbsp; &amp;nbsp; &amp;nbsp; &amp;nbsp; &amp;nbsp; ( family medical insurance )&amp;nbsp;&lt;/span&gt;&lt;span style=&quot;font-family: Helvetica, &amp;quot;VP Default&amp;quot;; font-weight: 700; text-align: left; background-color: rgb(248, 249, 250);&quot;&gt;&amp;nbsp;&lt;/span&gt;" style="rounded=1;whiteSpace=wrap;html=1;arcSize=40;fontColor=#000000;fillColor=#ffffc0;strokeColor=#ff0000;" vertex="1" parent="1">
          <mxGeometry x="-1520" y="-1345" width="175" height="90" as="geometry" />
        </mxCell>
        <mxCell id="884JPYB7_QhmBYuowr3j-13" style="edgeStyle=orthogonalEdgeStyle;rounded=0;orthogonalLoop=1;jettySize=auto;html=1;exitX=1;exitY=0.5;exitDx=0;exitDy=0;entryX=0;entryY=0.5;entryDx=0;entryDy=0;" edge="1" parent="1" source="884JPYB7_QhmBYuowr3j-4" target="884JPYB7_QhmBYuowr3j-8">
          <mxGeometry relative="1" as="geometry" />
        </mxCell>
        <mxCell id="884JPYB7_QhmBYuowr3j-4" value="&lt;span style=&quot;font-family: Helvetica, &amp;quot;VP Default&amp;quot;; font-weight: 700; text-align: left; background-color: rgb(248, 249, 250);&quot;&gt;user clicks on&amp;nbsp; &amp;nbsp; &amp;nbsp; &amp;nbsp; &amp;nbsp; &amp;nbsp; &amp;nbsp; &amp;nbsp; &amp;nbsp; &amp;nbsp; &amp;nbsp; &amp;nbsp; &amp;nbsp; &amp;nbsp; ( Family medical insurance )&amp;nbsp;&amp;nbsp;&lt;/span&gt;&lt;span style=&quot;font-family: Helvetica, &amp;quot;VP Default&amp;quot;; font-weight: 700; text-align: left; background-color: rgb(248, 249, 250);&quot;&gt;&amp;nbsp;&lt;/span&gt;" style="rounded=1;whiteSpace=wrap;html=1;arcSize=40;fontColor=#000000;fillColor=#ffffc0;strokeColor=#ff0000;" vertex="1" parent="1">
          <mxGeometry x="-1300" y="-1345" width="175" height="90" as="geometry" />
        </mxCell>
        <mxCell id="884JPYB7_QhmBYuowr3j-7" value="&lt;b&gt;&lt;font style=&quot;font-size: 18px;&quot;&gt;English Version&lt;/font&gt;&lt;/b&gt;" style="text;html=1;align=center;verticalAlign=middle;resizable=0;points=[];autosize=1;strokeColor=none;fillColor=none;" vertex="1" parent="1">
          <mxGeometry x="-1680" y="-1390" width="160" height="40" as="geometry" />
        </mxCell>
        <mxCell id="884JPYB7_QhmBYuowr3j-14" style="edgeStyle=orthogonalEdgeStyle;rounded=0;orthogonalLoop=1;jettySize=auto;html=1;exitX=0.5;exitY=1;exitDx=0;exitDy=0;" edge="1" parent="1" source="884JPYB7_QhmBYuowr3j-8" target="884JPYB7_QhmBYuowr3j-10">
          <mxGeometry relative="1" as="geometry" />
        </mxCell>
        <mxCell id="884JPYB7_QhmBYuowr3j-8" value="&lt;span style=&quot;font-family: Helvetica, &amp;quot;VP Default&amp;quot;; font-weight: 700; text-align: left; background-color: rgb(248, 249, 250);&quot;&gt;WhatsApp displays form Link&amp;nbsp;&amp;nbsp;&amp;nbsp;&lt;/span&gt;&lt;span style=&quot;font-family: Helvetica, &amp;quot;VP Default&amp;quot;; font-weight: 700; text-align: left; background-color: rgb(248, 249, 250);&quot;&gt;&amp;nbsp;&lt;/span&gt;" style="rounded=1;whiteSpace=wrap;html=1;arcSize=40;fontColor=#000000;fillColor=#ffffc0;strokeColor=#ff0000;" vertex="1" parent="1">
          <mxGeometry x="-1080" y="-1345" width="175" height="90" as="geometry" />
        </mxCell>
        <mxCell id="884JPYB7_QhmBYuowr3j-16" style="edgeStyle=orthogonalEdgeStyle;rounded=0;orthogonalLoop=1;jettySize=auto;html=1;exitX=0;exitY=0.5;exitDx=0;exitDy=0;entryX=1;entryY=0.5;entryDx=0;entryDy=0;" edge="1" parent="1" source="884JPYB7_QhmBYuowr3j-10" target="884JPYB7_QhmBYuowr3j-15">
          <mxGeometry relative="1" as="geometry" />
        </mxCell>
        <mxCell id="884JPYB7_QhmBYuowr3j-10" value="&lt;span style=&quot;font-family: Helvetica, &amp;quot;VP Default&amp;quot;; font-weight: 700; text-align: left; background-color: rgb(248, 249, 250);&quot;&gt;WhatsApp displays: Thank you for contacting beyond team , Kindly fill this form and You will receive a response within one business day from 9:00 AM to 5:00 PM, Sunday to Thursday&amp;nbsp; &amp;nbsp; &amp;nbsp; &amp;nbsp; &amp;nbsp; &amp;nbsp; &amp;nbsp; &amp;nbsp; &amp;nbsp; &amp;nbsp; &amp;nbsp; &amp;nbsp; &amp;nbsp; &amp;nbsp; &amp;nbsp; &amp;nbsp; &amp;nbsp;&amp;nbsp;&lt;/span&gt;" style="rounded=1;whiteSpace=wrap;html=1;arcSize=40;fontColor=#000000;fillColor=#ffffc0;strokeColor=#ff0000;" vertex="1" parent="1">
          <mxGeometry x="-1110" y="-1210" width="235" height="130" as="geometry" />
        </mxCell>
        <mxCell id="884JPYB7_QhmBYuowr3j-18" style="edgeStyle=orthogonalEdgeStyle;rounded=0;orthogonalLoop=1;jettySize=auto;html=1;exitX=0;exitY=0.5;exitDx=0;exitDy=0;entryX=1;entryY=0.5;entryDx=0;entryDy=0;" edge="1" parent="1" source="884JPYB7_QhmBYuowr3j-15" target="884JPYB7_QhmBYuowr3j-17">
          <mxGeometry relative="1" as="geometry" />
        </mxCell>
        <mxCell id="884JPYB7_QhmBYuowr3j-15" value="&lt;div style=&quot;text-align: left;&quot;&gt;&lt;span style=&quot;color: light-dark(rgb(0, 0, 0), rgb(237, 237, 237)); background-color: rgb(248, 249, 250);&quot;&gt;&lt;font face=&quot;Helvetica, VP Default&quot;&gt;&lt;b&gt;Assign to retail team&lt;/b&gt;&lt;/font&gt;&lt;/span&gt;&lt;/div&gt;" style="rounded=1;whiteSpace=wrap;html=1;arcSize=40;fontColor=#000000;fillColor=#ffffc0;strokeColor=#ff0000;" vertex="1" parent="1">
          <mxGeometry x="-1600" y="-1190" width="175" height="90" as="geometry" />
        </mxCell>
        <mxCell id="884JPYB7_QhmBYuowr3j-17" value="" style="ellipse;html=1;shape=endState;fillColor=#000000;strokeColor=#ff0000;" vertex="1" parent="1">
          <mxGeometry x="-1680" y="-1160" width="30" height="30" as="geometry" />
        </mxCell>
        <mxCell id="884JPYB7_QhmBYuowr3j-19" value="&lt;b&gt;&lt;font style=&quot;font-size: 18px;&quot;&gt;Arabic Version&lt;/font&gt;&lt;/b&gt;" style="text;html=1;align=center;verticalAlign=middle;resizable=0;points=[];autosize=1;strokeColor=none;fillColor=none;" vertex="1" parent="1">
          <mxGeometry x="-1675" y="-1080" width="150" height="40" as="geometry" />
        </mxCell>
        <mxCell id="884JPYB7_QhmBYuowr3j-44" style="edgeStyle=orthogonalEdgeStyle;rounded=0;orthogonalLoop=1;jettySize=auto;html=1;exitX=1;exitY=0.5;exitDx=0;exitDy=0;entryX=0;entryY=0.5;entryDx=0;entryDy=0;" edge="1" parent="1" source="884JPYB7_QhmBYuowr3j-20" target="884JPYB7_QhmBYuowr3j-43">
          <mxGeometry relative="1" as="geometry" />
        </mxCell>
        <mxCell id="884JPYB7_QhmBYuowr3j-20" value="tart" style="ellipse;html=1;shape=startState;fillColor=#000000;strokeColor=#ff0000;" vertex="1" parent="1">
          <mxGeometry x="-1675" y="-990" width="30" height="30" as="geometry" />
        </mxCell>
        <mxCell id="884JPYB7_QhmBYuowr3j-24" style="edgeStyle=orthogonalEdgeStyle;rounded=0;orthogonalLoop=1;jettySize=auto;html=1;exitX=1;exitY=0.5;exitDx=0;exitDy=0;entryX=0;entryY=0.5;entryDx=0;entryDy=0;" edge="1" parent="1" source="884JPYB7_QhmBYuowr3j-21" target="884JPYB7_QhmBYuowr3j-23">
          <mxGeometry relative="1" as="geometry" />
        </mxCell>
        <mxCell id="884JPYB7_QhmBYuowr3j-21" value="&lt;span style=&quot;font-family: Helvetica, &amp;quot;VP Default&amp;quot;; font-weight: 700; text-align: left; background-color: rgb(248, 249, 250);&quot;&gt;&amp;nbsp;WhatsApp displays&amp;nbsp; &amp;nbsp; &amp;nbsp; &amp;nbsp; &amp;nbsp; &amp;nbsp; &amp;nbsp; &amp;nbsp; &amp;nbsp; &amp;nbsp; ( تأمين طبي عائلي&amp;nbsp;)&amp;nbsp;&lt;/span&gt;&lt;span style=&quot;font-family: Helvetica, &amp;quot;VP Default&amp;quot;; font-weight: 700; text-align: left; background-color: rgb(248, 249, 250);&quot;&gt;&amp;nbsp;&lt;/span&gt;" style="rounded=1;whiteSpace=wrap;html=1;arcSize=40;fontColor=#000000;fillColor=#ffffc0;strokeColor=#ff0000;" vertex="1" parent="1">
          <mxGeometry x="-1510" y="-1030" width="175" height="90" as="geometry" />
        </mxCell>
        <mxCell id="884JPYB7_QhmBYuowr3j-26" style="edgeStyle=orthogonalEdgeStyle;rounded=0;orthogonalLoop=1;jettySize=auto;html=1;exitX=1;exitY=0.5;exitDx=0;exitDy=0;" edge="1" parent="1" source="884JPYB7_QhmBYuowr3j-23" target="884JPYB7_QhmBYuowr3j-25">
          <mxGeometry relative="1" as="geometry" />
        </mxCell>
        <mxCell id="884JPYB7_QhmBYuowr3j-23" value="&lt;span style=&quot;font-family: Helvetica, &amp;quot;VP Default&amp;quot;; font-weight: 700; text-align: left; background-color: rgb(248, 249, 250);&quot;&gt;user clicks on&amp;nbsp; &amp;nbsp; &amp;nbsp; &amp;nbsp; &amp;nbsp; &amp;nbsp; &amp;nbsp; &amp;nbsp; &amp;nbsp; &amp;nbsp; &amp;nbsp; &amp;nbsp; &amp;nbsp; &amp;nbsp; ( تأمين طبي عائلي&amp;nbsp;)&amp;nbsp;&amp;nbsp;&lt;/span&gt;&lt;span style=&quot;font-family: Helvetica, &amp;quot;VP Default&amp;quot;; font-weight: 700; text-align: left; background-color: rgb(248, 249, 250);&quot;&gt;&amp;nbsp;&lt;/span&gt;" style="rounded=1;whiteSpace=wrap;html=1;arcSize=40;fontColor=#000000;fillColor=#ffffc0;strokeColor=#ff0000;" vertex="1" parent="1">
          <mxGeometry x="-1285" y="-1030" width="175" height="90" as="geometry" />
        </mxCell>
        <mxCell id="884JPYB7_QhmBYuowr3j-28" style="edgeStyle=orthogonalEdgeStyle;rounded=0;orthogonalLoop=1;jettySize=auto;html=1;exitX=0.5;exitY=1;exitDx=0;exitDy=0;" edge="1" parent="1" source="884JPYB7_QhmBYuowr3j-25" target="884JPYB7_QhmBYuowr3j-27">
          <mxGeometry relative="1" as="geometry" />
        </mxCell>
        <mxCell id="884JPYB7_QhmBYuowr3j-25" value="&lt;span style=&quot;font-family: Helvetica, &amp;quot;VP Default&amp;quot;; font-weight: 700; text-align: left; background-color: rgb(248, 249, 250);&quot;&gt;WhatsApp displays form Link&amp;nbsp;&amp;nbsp;&amp;nbsp;&lt;/span&gt;&lt;span style=&quot;font-family: Helvetica, &amp;quot;VP Default&amp;quot;; font-weight: 700; text-align: left; background-color: rgb(248, 249, 250);&quot;&gt;&amp;nbsp;&lt;/span&gt;" style="rounded=1;whiteSpace=wrap;html=1;arcSize=40;fontColor=#000000;fillColor=#ffffc0;strokeColor=#ff0000;" vertex="1" parent="1">
          <mxGeometry x="-1080" y="-1030" width="175" height="90" as="geometry" />
        </mxCell>
        <mxCell id="884JPYB7_QhmBYuowr3j-32" style="edgeStyle=orthogonalEdgeStyle;rounded=0;orthogonalLoop=1;jettySize=auto;html=1;exitX=0;exitY=0.5;exitDx=0;exitDy=0;entryX=1;entryY=0.5;entryDx=0;entryDy=0;" edge="1" parent="1" source="884JPYB7_QhmBYuowr3j-27" target="884JPYB7_QhmBYuowr3j-29">
          <mxGeometry relative="1" as="geometry" />
        </mxCell>
        <mxCell id="884JPYB7_QhmBYuowr3j-27" value="&lt;span style=&quot;font-family: Helvetica, &amp;quot;VP Default&amp;quot;; font-weight: 700; text-align: left; background-color: rgb(248, 249, 250);&quot;&gt;WhatsApp displays:&amp;nbsp; &amp;nbsp; &amp;nbsp; &amp;nbsp; &amp;nbsp; &amp;nbsp; &amp;nbsp; &amp;nbsp; &amp;nbsp; &amp;nbsp; &amp;nbsp; &amp;nbsp; &amp;nbsp; &amp;nbsp; &amp;nbsp; &amp;nbsp; &amp;nbsp;شكرا لتواصلكم مع فريق بيوند&amp;nbsp;, من فضلك قم بتعبئة هذا النموذج وستتلقى رداً خلال يوم عمل واحد من الساعة 9:00 صباحاً إلى 5:00 مساءً، من الأحد إلى الخميس.&lt;/span&gt;" style="rounded=1;whiteSpace=wrap;html=1;arcSize=40;fontColor=#000000;fillColor=#ffffc0;strokeColor=#ff0000;" vertex="1" parent="1">
          <mxGeometry x="-1105" y="-900" width="225" height="130" as="geometry" />
        </mxCell>
        <mxCell id="884JPYB7_QhmBYuowr3j-31" style="edgeStyle=orthogonalEdgeStyle;rounded=0;orthogonalLoop=1;jettySize=auto;html=1;exitX=0;exitY=0.5;exitDx=0;exitDy=0;entryX=1;entryY=0.5;entryDx=0;entryDy=0;" edge="1" parent="1" source="884JPYB7_QhmBYuowr3j-29" target="884JPYB7_QhmBYuowr3j-30">
          <mxGeometry relative="1" as="geometry" />
        </mxCell>
        <mxCell id="884JPYB7_QhmBYuowr3j-29" value="&lt;div style=&quot;text-align: left;&quot;&gt;&lt;span style=&quot;color: light-dark(rgb(0, 0, 0), rgb(237, 237, 237)); background-color: rgb(248, 249, 250);&quot;&gt;&lt;font face=&quot;Helvetica, VP Default&quot;&gt;&lt;b&gt;Assign to retail team&lt;/b&gt;&lt;/font&gt;&lt;/span&gt;&lt;/div&gt;" style="rounded=1;whiteSpace=wrap;html=1;arcSize=40;fontColor=#000000;fillColor=#ffffc0;strokeColor=#ff0000;" vertex="1" parent="1">
          <mxGeometry x="-1540" y="-880" width="175" height="90" as="geometry" />
        </mxCell>
        <mxCell id="884JPYB7_QhmBYuowr3j-30" value="" style="ellipse;html=1;shape=endState;fillColor=#000000;strokeColor=#ff0000;" vertex="1" parent="1">
          <mxGeometry x="-1675" y="-850" width="30" height="30" as="geometry" />
        </mxCell>
        <mxCell id="884JPYB7_QhmBYuowr3j-33" value="" style="line;strokeWidth=1;fillColor=none;align=left;verticalAlign=middle;spacingTop=-1;spacingLeft=3;spacingRight=3;rotatable=0;labelPosition=right;points=[];portConstraint=eastwest;strokeColor=inherit;" vertex="1" parent="1">
          <mxGeometry x="-1685" y="-750" width="825" height="8" as="geometry" />
        </mxCell>
        <mxCell id="884JPYB7_QhmBYuowr3j-34" value="&lt;b&gt;&lt;font style=&quot;font-size: 18px;&quot;&gt;English Version&lt;/font&gt;&lt;/b&gt;" style="text;html=1;align=center;verticalAlign=middle;resizable=0;points=[];autosize=1;strokeColor=none;fillColor=none;" vertex="1" parent="1">
          <mxGeometry x="-1685" y="-720" width="160" height="40" as="geometry" />
        </mxCell>
        <mxCell id="884JPYB7_QhmBYuowr3j-37" style="edgeStyle=orthogonalEdgeStyle;rounded=0;orthogonalLoop=1;jettySize=auto;html=1;exitX=1;exitY=0.5;exitDx=0;exitDy=0;" edge="1" parent="1" source="884JPYB7_QhmBYuowr3j-35">
          <mxGeometry relative="1" as="geometry">
            <mxPoint x="-1610" y="-625" as="targetPoint" />
          </mxGeometry>
        </mxCell>
        <mxCell id="884JPYB7_QhmBYuowr3j-35" value="tart" style="ellipse;html=1;shape=startState;fillColor=#000000;strokeColor=#ff0000;" vertex="1" parent="1">
          <mxGeometry x="-1670" y="-640" width="30" height="30" as="geometry" />
        </mxCell>
        <mxCell id="884JPYB7_QhmBYuowr3j-51" style="edgeStyle=orthogonalEdgeStyle;rounded=0;orthogonalLoop=1;jettySize=auto;html=1;exitX=1;exitY=0.5;exitDx=0;exitDy=0;entryX=0;entryY=0.5;entryDx=0;entryDy=0;" edge="1" parent="1" source="884JPYB7_QhmBYuowr3j-38" target="884JPYB7_QhmBYuowr3j-50">
          <mxGeometry relative="1" as="geometry" />
        </mxCell>
        <mxCell id="884JPYB7_QhmBYuowr3j-38" value="&lt;span style=&quot;font-family: Helvetica, &amp;quot;VP Default&amp;quot;; font-weight: 700; text-align: left; background-color: rgb(248, 249, 250);&quot;&gt;WhatsApp displays&amp;nbsp; ( car insurance )&amp;nbsp;&lt;/span&gt;" style="rounded=1;whiteSpace=wrap;html=1;arcSize=40;fontColor=#000000;fillColor=#ffffc0;strokeColor=#ff0000;" vertex="1" parent="1">
          <mxGeometry x="-1495" y="-670" width="220" height="90" as="geometry" />
        </mxCell>
        <mxCell id="884JPYB7_QhmBYuowr3j-42" style="edgeStyle=orthogonalEdgeStyle;rounded=0;orthogonalLoop=1;jettySize=auto;html=1;exitX=1;exitY=0.5;exitDx=0;exitDy=0;entryX=0;entryY=0.5;entryDx=0;entryDy=0;" edge="1" parent="1" source="884JPYB7_QhmBYuowr3j-40" target="884JPYB7_QhmBYuowr3j-1">
          <mxGeometry relative="1" as="geometry" />
        </mxCell>
        <mxCell id="884JPYB7_QhmBYuowr3j-40" value="&lt;div style=&quot;text-align: left;&quot;&gt;&lt;span style=&quot;color: light-dark(rgb(0, 0, 0), rgb(237, 237, 237)); background-color: rgb(248, 249, 250);&quot;&gt;&lt;font face=&quot;Helvetica, VP Default&quot;&gt;&lt;b&gt;MENU&lt;/b&gt;&lt;/font&gt;&lt;/span&gt;&lt;/div&gt;" style="rounded=1;whiteSpace=wrap;html=1;arcSize=50;fontColor=#000000;fillColor=#ffffc0;strokeColor=#ff0000;" vertex="1" parent="1">
          <mxGeometry x="-1635" y="-1320" width="65" height="40" as="geometry" />
        </mxCell>
        <mxCell id="884JPYB7_QhmBYuowr3j-43" value="&lt;div style=&quot;text-align: left;&quot;&gt;&lt;span style=&quot;color: light-dark(rgb(0, 0, 0), rgb(237, 237, 237)); background-color: rgb(248, 249, 250);&quot;&gt;&lt;font face=&quot;Helvetica, VP Default&quot;&gt;&lt;b&gt;MENU&lt;/b&gt;&lt;/font&gt;&lt;/span&gt;&lt;/div&gt;" style="rounded=1;whiteSpace=wrap;html=1;arcSize=50;fontColor=#000000;fillColor=#ffffc0;strokeColor=#ff0000;" vertex="1" parent="1">
          <mxGeometry x="-1620" y="-995" width="65" height="40" as="geometry" />
        </mxCell>
        <mxCell id="884JPYB7_QhmBYuowr3j-45" style="edgeStyle=orthogonalEdgeStyle;rounded=0;orthogonalLoop=1;jettySize=auto;html=1;exitX=1;exitY=0.5;exitDx=0;exitDy=0;entryX=-0.014;entryY=0.596;entryDx=0;entryDy=0;entryPerimeter=0;" edge="1" parent="1" source="884JPYB7_QhmBYuowr3j-43" target="884JPYB7_QhmBYuowr3j-21">
          <mxGeometry relative="1" as="geometry" />
        </mxCell>
        <mxCell id="884JPYB7_QhmBYuowr3j-48" value="&lt;div style=&quot;text-align: left;&quot;&gt;&lt;span style=&quot;color: light-dark(rgb(0, 0, 0), rgb(237, 237, 237)); background-color: rgb(248, 249, 250);&quot;&gt;&lt;font face=&quot;Helvetica, VP Default&quot;&gt;&lt;b&gt;MENU&lt;/b&gt;&lt;/font&gt;&lt;/span&gt;&lt;/div&gt;" style="rounded=1;whiteSpace=wrap;html=1;arcSize=50;fontColor=#000000;fillColor=#ffffc0;strokeColor=#ff0000;" vertex="1" parent="1">
          <mxGeometry x="-1610" y="-645" width="65" height="40" as="geometry" />
        </mxCell>
        <mxCell id="884JPYB7_QhmBYuowr3j-49" style="edgeStyle=orthogonalEdgeStyle;rounded=0;orthogonalLoop=1;jettySize=auto;html=1;exitX=1;exitY=0.5;exitDx=0;exitDy=0;entryX=0.011;entryY=0.591;entryDx=0;entryDy=0;entryPerimeter=0;" edge="1" parent="1" source="884JPYB7_QhmBYuowr3j-48" target="884JPYB7_QhmBYuowr3j-38">
          <mxGeometry relative="1" as="geometry" />
        </mxCell>
        <mxCell id="884JPYB7_QhmBYuowr3j-53" style="edgeStyle=orthogonalEdgeStyle;rounded=0;orthogonalLoop=1;jettySize=auto;html=1;exitX=1;exitY=0.5;exitDx=0;exitDy=0;entryX=0;entryY=0.5;entryDx=0;entryDy=0;" edge="1" parent="1" source="884JPYB7_QhmBYuowr3j-50" target="884JPYB7_QhmBYuowr3j-52">
          <mxGeometry relative="1" as="geometry" />
        </mxCell>
        <mxCell id="884JPYB7_QhmBYuowr3j-50" value="&lt;span style=&quot;font-family: Helvetica, &amp;quot;VP Default&amp;quot;; font-weight: 700; text-align: left; background-color: rgb(248, 249, 250);&quot;&gt;user clicks on&amp;nbsp; ( car insurance )&lt;/span&gt;" style="rounded=1;whiteSpace=wrap;html=1;arcSize=40;fontColor=#000000;fillColor=#ffffc0;strokeColor=#ff0000;" vertex="1" parent="1">
          <mxGeometry x="-1210" y="-670" width="190" height="90" as="geometry" />
        </mxCell>
        <mxCell id="884JPYB7_QhmBYuowr3j-55" style="edgeStyle=orthogonalEdgeStyle;rounded=0;orthogonalLoop=1;jettySize=auto;html=1;exitX=0.5;exitY=1;exitDx=0;exitDy=0;entryX=0.5;entryY=0;entryDx=0;entryDy=0;" edge="1" parent="1" source="884JPYB7_QhmBYuowr3j-52">
          <mxGeometry relative="1" as="geometry">
            <mxPoint x="-882.5" y="-520" as="targetPoint" />
          </mxGeometry>
        </mxCell>
        <mxCell id="884JPYB7_QhmBYuowr3j-52" value="&lt;span style=&quot;font-family: Helvetica, &amp;quot;VP Default&amp;quot;; font-weight: 700; text-align: left; background-color: rgb(248, 249, 250);&quot;&gt;WhatsApp displays form Link&amp;nbsp;&amp;nbsp;&amp;nbsp;&lt;/span&gt;&lt;span style=&quot;font-family: Helvetica, &amp;quot;VP Default&amp;quot;; font-weight: 700; text-align: left; background-color: rgb(248, 249, 250);&quot;&gt;&amp;nbsp;&lt;/span&gt;" style="rounded=1;whiteSpace=wrap;html=1;arcSize=40;fontColor=#000000;fillColor=#ffffc0;strokeColor=#ff0000;" vertex="1" parent="1">
          <mxGeometry x="-970" y="-670" width="175" height="90" as="geometry" />
        </mxCell>
        <mxCell id="884JPYB7_QhmBYuowr3j-58" style="edgeStyle=orthogonalEdgeStyle;rounded=0;orthogonalLoop=1;jettySize=auto;html=1;exitX=0;exitY=0.5;exitDx=0;exitDy=0;entryX=1;entryY=0.5;entryDx=0;entryDy=0;" edge="1" parent="1" source="884JPYB7_QhmBYuowr3j-56" target="884JPYB7_QhmBYuowr3j-57">
          <mxGeometry relative="1" as="geometry" />
        </mxCell>
        <mxCell id="884JPYB7_QhmBYuowr3j-56" value="&lt;span style=&quot;font-family: Helvetica, &amp;quot;VP Default&amp;quot;; font-weight: 700; text-align: left; background-color: rgb(248, 249, 250);&quot;&gt;WhatsApp displays: Thank you for contacting beyond team , Kindly fill this form and You will receive a response within one business day from 9:00 AM to 5:00 PM, Sunday to Thursday&amp;nbsp; &amp;nbsp; &amp;nbsp; &amp;nbsp; &amp;nbsp; &amp;nbsp; &amp;nbsp; &amp;nbsp; &amp;nbsp; &amp;nbsp; &amp;nbsp; &amp;nbsp; &amp;nbsp; &amp;nbsp; &amp;nbsp; &amp;nbsp; &amp;nbsp;&amp;nbsp;&lt;/span&gt;" style="rounded=1;whiteSpace=wrap;html=1;arcSize=40;fontColor=#000000;fillColor=#ffffc0;strokeColor=#ff0000;" vertex="1" parent="1">
          <mxGeometry x="-1010" y="-520" width="235" height="130" as="geometry" />
        </mxCell>
        <mxCell id="884JPYB7_QhmBYuowr3j-60" style="edgeStyle=orthogonalEdgeStyle;rounded=0;orthogonalLoop=1;jettySize=auto;html=1;exitX=0;exitY=0.5;exitDx=0;exitDy=0;entryX=1;entryY=0.5;entryDx=0;entryDy=0;" edge="1" parent="1" source="884JPYB7_QhmBYuowr3j-57" target="884JPYB7_QhmBYuowr3j-59">
          <mxGeometry relative="1" as="geometry" />
        </mxCell>
        <mxCell id="884JPYB7_QhmBYuowr3j-57" value="&lt;div style=&quot;text-align: left;&quot;&gt;&lt;span style=&quot;color: light-dark(rgb(0, 0, 0), rgb(237, 237, 237)); background-color: rgb(248, 249, 250);&quot;&gt;&lt;font face=&quot;Helvetica, VP Default&quot;&gt;&lt;b&gt;Assign to retail team&lt;/b&gt;&lt;/font&gt;&lt;/span&gt;&lt;/div&gt;" style="rounded=1;whiteSpace=wrap;html=1;arcSize=40;fontColor=#000000;fillColor=#ffffc0;strokeColor=#ff0000;" vertex="1" parent="1">
          <mxGeometry x="-1472.5" y="-500" width="175" height="90" as="geometry" />
        </mxCell>
        <mxCell id="884JPYB7_QhmBYuowr3j-59" value="" style="ellipse;html=1;shape=endState;fillColor=#000000;strokeColor=#ff0000;" vertex="1" parent="1">
          <mxGeometry x="-1670" y="-470" width="30" height="30" as="geometry" />
        </mxCell>
        <mxCell id="884JPYB7_QhmBYuowr3j-61" value="&lt;b&gt;&lt;font style=&quot;font-size: 18px;&quot;&gt;Arabic Version&lt;/font&gt;&lt;/b&gt;" style="text;html=1;align=center;verticalAlign=middle;resizable=0;points=[];autosize=1;strokeColor=none;fillColor=none;" vertex="1" parent="1">
          <mxGeometry x="-1685" y="-350" width="150" height="40" as="geometry" />
        </mxCell>
        <mxCell id="884JPYB7_QhmBYuowr3j-64" style="edgeStyle=orthogonalEdgeStyle;rounded=0;orthogonalLoop=1;jettySize=auto;html=1;exitX=1;exitY=0.5;exitDx=0;exitDy=0;entryX=0;entryY=0.5;entryDx=0;entryDy=0;" edge="1" parent="1" source="884JPYB7_QhmBYuowr3j-62" target="884JPYB7_QhmBYuowr3j-63">
          <mxGeometry relative="1" as="geometry" />
        </mxCell>
        <mxCell id="884JPYB7_QhmBYuowr3j-62" value="tart" style="ellipse;html=1;shape=startState;fillColor=#000000;strokeColor=#ff0000;" vertex="1" parent="1">
          <mxGeometry x="-1665" y="-270" width="30" height="30" as="geometry" />
        </mxCell>
        <mxCell id="884JPYB7_QhmBYuowr3j-66" style="edgeStyle=orthogonalEdgeStyle;rounded=0;orthogonalLoop=1;jettySize=auto;html=1;exitX=1;exitY=0.5;exitDx=0;exitDy=0;entryX=0;entryY=0.5;entryDx=0;entryDy=0;" edge="1" parent="1" source="884JPYB7_QhmBYuowr3j-63" target="884JPYB7_QhmBYuowr3j-65">
          <mxGeometry relative="1" as="geometry" />
        </mxCell>
        <mxCell id="884JPYB7_QhmBYuowr3j-63" value="&lt;div style=&quot;text-align: left;&quot;&gt;&lt;span style=&quot;color: light-dark(rgb(0, 0, 0), rgb(237, 237, 237)); background-color: rgb(248, 249, 250);&quot;&gt;&lt;font face=&quot;Helvetica, VP Default&quot;&gt;&lt;b&gt;MENU&lt;/b&gt;&lt;/font&gt;&lt;/span&gt;&lt;/div&gt;" style="rounded=1;whiteSpace=wrap;html=1;arcSize=50;fontColor=#000000;fillColor=#ffffc0;strokeColor=#ff0000;" vertex="1" parent="1">
          <mxGeometry x="-1600" y="-275" width="65" height="40" as="geometry" />
        </mxCell>
        <mxCell id="884JPYB7_QhmBYuowr3j-68" style="edgeStyle=orthogonalEdgeStyle;rounded=0;orthogonalLoop=1;jettySize=auto;html=1;exitX=1;exitY=0.5;exitDx=0;exitDy=0;entryX=0;entryY=0.5;entryDx=0;entryDy=0;" edge="1" parent="1" source="884JPYB7_QhmBYuowr3j-65" target="884JPYB7_QhmBYuowr3j-67">
          <mxGeometry relative="1" as="geometry" />
        </mxCell>
        <mxCell id="884JPYB7_QhmBYuowr3j-65" value="&lt;span style=&quot;font-family: Helvetica, &amp;quot;VP Default&amp;quot;; font-weight: 700; text-align: left; background-color: rgb(248, 249, 250);&quot;&gt;WhatsApp displays&amp;nbsp; ( تأمين السيارات&amp;nbsp;)&amp;nbsp;&amp;nbsp;&lt;/span&gt;" style="rounded=1;whiteSpace=wrap;html=1;arcSize=40;fontColor=#000000;fillColor=#ffffc0;strokeColor=#ff0000;" vertex="1" parent="1">
          <mxGeometry x="-1500" y="-300" width="220" height="90" as="geometry" />
        </mxCell>
        <mxCell id="884JPYB7_QhmBYuowr3j-70" style="edgeStyle=orthogonalEdgeStyle;rounded=0;orthogonalLoop=1;jettySize=auto;html=1;exitX=1;exitY=0.5;exitDx=0;exitDy=0;entryX=0;entryY=0.5;entryDx=0;entryDy=0;" edge="1" parent="1" source="884JPYB7_QhmBYuowr3j-67" target="884JPYB7_QhmBYuowr3j-69">
          <mxGeometry relative="1" as="geometry" />
        </mxCell>
        <mxCell id="884JPYB7_QhmBYuowr3j-67" value="&lt;span style=&quot;font-family: Helvetica, &amp;quot;VP Default&amp;quot;; font-weight: 700; text-align: left; background-color: rgb(248, 249, 250);&quot;&gt;user clicks on&amp;nbsp; (&amp;nbsp;&amp;nbsp;&amp;nbsp;تأمين السيارات)&amp;nbsp;&lt;/span&gt;" style="rounded=1;whiteSpace=wrap;html=1;arcSize=40;fontColor=#000000;fillColor=#ffffc0;strokeColor=#ff0000;" vertex="1" parent="1">
          <mxGeometry x="-1230" y="-300" width="190" height="90" as="geometry" />
        </mxCell>
        <mxCell id="884JPYB7_QhmBYuowr3j-73" style="edgeStyle=orthogonalEdgeStyle;rounded=0;orthogonalLoop=1;jettySize=auto;html=1;exitX=0.5;exitY=1;exitDx=0;exitDy=0;" edge="1" parent="1" source="884JPYB7_QhmBYuowr3j-69" target="884JPYB7_QhmBYuowr3j-72">
          <mxGeometry relative="1" as="geometry" />
        </mxCell>
        <mxCell id="884JPYB7_QhmBYuowr3j-69" value="&lt;span style=&quot;font-family: Helvetica, &amp;quot;VP Default&amp;quot;; font-weight: 700; text-align: left; background-color: rgb(248, 249, 250);&quot;&gt;WhatsApp displays form Link&amp;nbsp;&amp;nbsp;&amp;nbsp;&lt;/span&gt;&lt;span style=&quot;font-family: Helvetica, &amp;quot;VP Default&amp;quot;; font-weight: 700; text-align: left; background-color: rgb(248, 249, 250);&quot;&gt;&amp;nbsp;&lt;/span&gt;" style="rounded=1;whiteSpace=wrap;html=1;arcSize=40;fontColor=#000000;fillColor=#ffffc0;strokeColor=#ff0000;" vertex="1" parent="1">
          <mxGeometry x="-980" y="-300" width="175" height="90" as="geometry" />
        </mxCell>
        <mxCell id="884JPYB7_QhmBYuowr3j-75" style="edgeStyle=orthogonalEdgeStyle;rounded=0;orthogonalLoop=1;jettySize=auto;html=1;exitX=0;exitY=0.5;exitDx=0;exitDy=0;" edge="1" parent="1" source="884JPYB7_QhmBYuowr3j-72" target="884JPYB7_QhmBYuowr3j-74">
          <mxGeometry relative="1" as="geometry" />
        </mxCell>
        <mxCell id="884JPYB7_QhmBYuowr3j-72" value="&lt;span style=&quot;font-family: Helvetica, &amp;quot;VP Default&amp;quot;; font-weight: 700; text-align: left; background-color: rgb(248, 249, 250);&quot;&gt;WhatsApp displays:&amp;nbsp; &amp;nbsp; &amp;nbsp; &amp;nbsp; &amp;nbsp; &amp;nbsp; &amp;nbsp; &amp;nbsp; &amp;nbsp; &amp;nbsp; &amp;nbsp; &amp;nbsp; &amp;nbsp; &amp;nbsp; &amp;nbsp; &amp;nbsp; &amp;nbsp;شكرا لتواصلكم مع فريق بيوند&amp;nbsp;, من فضلك قم بتعبئة هذا النموذج وستتلقى رداً خلال يوم عمل واحد من الساعة 9:00 صباحاً إلى 5:00 مساءً، من الأحد إلى الخميس.&lt;/span&gt;" style="rounded=1;whiteSpace=wrap;html=1;arcSize=40;fontColor=#000000;fillColor=#ffffc0;strokeColor=#ff0000;" vertex="1" parent="1">
          <mxGeometry x="-1005" y="-150" width="225" height="130" as="geometry" />
        </mxCell>
        <mxCell id="884JPYB7_QhmBYuowr3j-74" value="&lt;div style=&quot;text-align: left;&quot;&gt;&lt;span style=&quot;color: light-dark(rgb(0, 0, 0), rgb(237, 237, 237)); background-color: rgb(248, 249, 250);&quot;&gt;&lt;font face=&quot;Helvetica, VP Default&quot;&gt;&lt;b&gt;Assign to retail team&lt;/b&gt;&lt;/font&gt;&lt;/span&gt;&lt;/div&gt;" style="rounded=1;whiteSpace=wrap;html=1;arcSize=40;fontColor=#000000;fillColor=#ffffc0;strokeColor=#ff0000;" vertex="1" parent="1">
          <mxGeometry x="-1472.5" y="-130" width="175" height="90" as="geometry" />
        </mxCell>
        <mxCell id="884JPYB7_QhmBYuowr3j-76" value="" style="ellipse;html=1;shape=endState;fillColor=#000000;strokeColor=#ff0000;" vertex="1" parent="1">
          <mxGeometry x="-1675" y="-100" width="30" height="30" as="geometry" />
        </mxCell>
        <mxCell id="884JPYB7_QhmBYuowr3j-77" style="edgeStyle=orthogonalEdgeStyle;rounded=0;orthogonalLoop=1;jettySize=auto;html=1;exitX=0;exitY=0.5;exitDx=0;exitDy=0;entryX=0.733;entryY=0.507;entryDx=0;entryDy=0;entryPerimeter=0;" edge="1" parent="1" source="884JPYB7_QhmBYuowr3j-74" target="884JPYB7_QhmBYuowr3j-76">
          <mxGeometry relative="1" as="geometry" />
        </mxCell>
        <mxCell id="884JPYB7_QhmBYuowr3j-78" value="" style="line;strokeWidth=1;fillColor=none;align=left;verticalAlign=middle;spacingTop=-1;spacingLeft=3;spacingRight=3;rotatable=0;labelPosition=right;points=[];portConstraint=eastwest;strokeColor=inherit;" vertex="1" parent="1">
          <mxGeometry x="-1780" y="20" width="940" height="8" as="geometry" />
        </mxCell>
        <mxCell id="884JPYB7_QhmBYuowr3j-82" style="edgeStyle=orthogonalEdgeStyle;rounded=0;orthogonalLoop=1;jettySize=auto;html=1;exitX=1;exitY=0.5;exitDx=0;exitDy=0;entryX=0;entryY=0.5;entryDx=0;entryDy=0;" edge="1" parent="1" source="884JPYB7_QhmBYuowr3j-80" target="884JPYB7_QhmBYuowr3j-81">
          <mxGeometry relative="1" as="geometry" />
        </mxCell>
        <mxCell id="884JPYB7_QhmBYuowr3j-80" value="tart" style="ellipse;html=1;shape=startState;fillColor=#000000;strokeColor=#ff0000;" vertex="1" parent="1">
          <mxGeometry x="-1675" y="110" width="30" height="30" as="geometry" />
        </mxCell>
        <mxCell id="884JPYB7_QhmBYuowr3j-84" style="edgeStyle=orthogonalEdgeStyle;rounded=0;orthogonalLoop=1;jettySize=auto;html=1;exitX=1;exitY=0.5;exitDx=0;exitDy=0;entryX=0;entryY=0.5;entryDx=0;entryDy=0;" edge="1" parent="1" source="884JPYB7_QhmBYuowr3j-81" target="884JPYB7_QhmBYuowr3j-83">
          <mxGeometry relative="1" as="geometry" />
        </mxCell>
        <mxCell id="884JPYB7_QhmBYuowr3j-81" value="&lt;div style=&quot;text-align: left;&quot;&gt;&lt;span style=&quot;color: light-dark(rgb(0, 0, 0), rgb(237, 237, 237)); background-color: rgb(248, 249, 250);&quot;&gt;&lt;font face=&quot;Helvetica, VP Default&quot;&gt;&lt;b&gt;MENU&lt;/b&gt;&lt;/font&gt;&lt;/span&gt;&lt;/div&gt;" style="rounded=1;whiteSpace=wrap;html=1;arcSize=50;fontColor=#000000;fillColor=#ffffc0;strokeColor=#ff0000;" vertex="1" parent="1">
          <mxGeometry x="-1610" y="105" width="65" height="40" as="geometry" />
        </mxCell>
        <mxCell id="884JPYB7_QhmBYuowr3j-86" style="edgeStyle=orthogonalEdgeStyle;rounded=0;orthogonalLoop=1;jettySize=auto;html=1;exitX=1;exitY=0.5;exitDx=0;exitDy=0;entryX=0;entryY=0.5;entryDx=0;entryDy=0;" edge="1" parent="1" source="884JPYB7_QhmBYuowr3j-83" target="884JPYB7_QhmBYuowr3j-85">
          <mxGeometry relative="1" as="geometry" />
        </mxCell>
        <mxCell id="884JPYB7_QhmBYuowr3j-83" value="&lt;span style=&quot;font-family: Helvetica, &amp;quot;VP Default&amp;quot;; font-weight: 700; text-align: left; background-color: rgb(248, 249, 250);&quot;&gt;WhatsApp displays&amp;nbsp; (Reimbursement )&lt;/span&gt;" style="rounded=1;whiteSpace=wrap;html=1;arcSize=40;fontColor=#000000;fillColor=#ffffc0;strokeColor=#ff0000;" vertex="1" parent="1">
          <mxGeometry x="-1505" y="80" width="230" height="90" as="geometry" />
        </mxCell>
        <mxCell id="884JPYB7_QhmBYuowr3j-88" style="edgeStyle=orthogonalEdgeStyle;rounded=0;orthogonalLoop=1;jettySize=auto;html=1;exitX=0.5;exitY=1;exitDx=0;exitDy=0;entryX=0.5;entryY=0;entryDx=0;entryDy=0;" edge="1" parent="1" source="884JPYB7_QhmBYuowr3j-85" target="884JPYB7_QhmBYuowr3j-87">
          <mxGeometry relative="1" as="geometry" />
        </mxCell>
        <mxCell id="884JPYB7_QhmBYuowr3j-85" value="&lt;span style=&quot;font-family: Helvetica, &amp;quot;VP Default&amp;quot;; font-weight: 700; text-align: left; background-color: rgb(248, 249, 250);&quot;&gt;User clicks on (Reimbursement )&lt;/span&gt;" style="rounded=1;whiteSpace=wrap;html=1;arcSize=40;fontColor=#000000;fillColor=#ffffc0;strokeColor=#ff0000;" vertex="1" parent="1">
          <mxGeometry x="-1200" y="80" width="230" height="90" as="geometry" />
        </mxCell>
        <mxCell id="884JPYB7_QhmBYuowr3j-95" style="edgeStyle=orthogonalEdgeStyle;rounded=0;orthogonalLoop=1;jettySize=auto;html=1;exitX=0.5;exitY=1;exitDx=0;exitDy=0;entryX=0.5;entryY=0;entryDx=0;entryDy=0;" edge="1" parent="1" source="884JPYB7_QhmBYuowr3j-87" target="884JPYB7_QhmBYuowr3j-91">
          <mxGeometry relative="1" as="geometry" />
        </mxCell>
        <mxCell id="884JPYB7_QhmBYuowr3j-87" value="&lt;span style=&quot;font-family: Helvetica, &amp;quot;VP Default&amp;quot;; font-weight: 700; text-align: left; background-color: rgb(248, 249, 250);&quot;&gt;WhatsApp displays : thank you for contacting beyond team , please choose a service&amp;nbsp; &amp;nbsp;&lt;/span&gt;" style="rounded=1;whiteSpace=wrap;html=1;arcSize=40;fontColor=#000000;fillColor=#ffffc0;strokeColor=#ff0000;" vertex="1" parent="1">
          <mxGeometry x="-1340" y="210" width="230" height="90" as="geometry" />
        </mxCell>
        <mxCell id="884JPYB7_QhmBYuowr3j-101" style="edgeStyle=orthogonalEdgeStyle;rounded=0;orthogonalLoop=1;jettySize=auto;html=1;exitX=0.5;exitY=1;exitDx=0;exitDy=0;" edge="1" parent="1" source="884JPYB7_QhmBYuowr3j-89" target="884JPYB7_QhmBYuowr3j-100">
          <mxGeometry relative="1" as="geometry" />
        </mxCell>
        <mxCell id="884JPYB7_QhmBYuowr3j-89" value="&lt;span style=&quot;font-family: Helvetica, &amp;quot;VP Default&amp;quot;; font-weight: 700; text-align: left; background-color: rgb(248, 249, 250);&quot;&gt;WhatsApp displays&amp;nbsp; (Paper Review)&lt;/span&gt;" style="rounded=1;whiteSpace=wrap;html=1;arcSize=40;fontColor=#000000;fillColor=#ffffc0;strokeColor=#ff0000;" vertex="1" parent="1">
          <mxGeometry x="-1610" y="325" width="215" height="50" as="geometry" />
        </mxCell>
        <mxCell id="884JPYB7_QhmBYuowr3j-98" style="edgeStyle=orthogonalEdgeStyle;rounded=0;orthogonalLoop=1;jettySize=auto;html=1;exitX=0;exitY=0.5;exitDx=0;exitDy=0;entryX=1;entryY=0.5;entryDx=0;entryDy=0;" edge="1" parent="1" source="884JPYB7_QhmBYuowr3j-91" target="884JPYB7_QhmBYuowr3j-89">
          <mxGeometry relative="1" as="geometry" />
        </mxCell>
        <mxCell id="884JPYB7_QhmBYuowr3j-99" style="edgeStyle=orthogonalEdgeStyle;rounded=0;orthogonalLoop=1;jettySize=auto;html=1;exitX=1;exitY=0.5;exitDx=0;exitDy=0;entryX=0;entryY=0.5;entryDx=0;entryDy=0;" edge="1" parent="1" source="884JPYB7_QhmBYuowr3j-91" target="884JPYB7_QhmBYuowr3j-97">
          <mxGeometry relative="1" as="geometry" />
        </mxCell>
        <mxCell id="884JPYB7_QhmBYuowr3j-91" value="Decision" style="rhombus;whiteSpace=wrap;html=1;fontColor=#000000;fillColor=#ffffc0;strokeColor=#ff0000;" vertex="1" parent="1">
          <mxGeometry x="-1275" y="330" width="80" height="40" as="geometry" />
        </mxCell>
        <mxCell id="884JPYB7_QhmBYuowr3j-94" value="&lt;b&gt;&lt;font style=&quot;font-size: 18px;&quot;&gt;English Version&lt;/font&gt;&lt;/b&gt;" style="text;html=1;align=center;verticalAlign=middle;resizable=0;points=[];autosize=1;strokeColor=none;fillColor=none;" vertex="1" parent="1">
          <mxGeometry x="-1670" y="50" width="160" height="40" as="geometry" />
        </mxCell>
        <mxCell id="884JPYB7_QhmBYuowr3j-128" style="edgeStyle=orthogonalEdgeStyle;rounded=0;orthogonalLoop=1;jettySize=auto;html=1;exitX=0.5;exitY=1;exitDx=0;exitDy=0;" edge="1" parent="1" source="884JPYB7_QhmBYuowr3j-97" target="884JPYB7_QhmBYuowr3j-127">
          <mxGeometry relative="1" as="geometry" />
        </mxCell>
        <mxCell id="884JPYB7_QhmBYuowr3j-97" value="&lt;span style=&quot;font-family: Helvetica, &amp;quot;VP Default&amp;quot;; font-weight: 700; text-align: left; background-color: rgb(248, 249, 250);&quot;&gt;WhatsApp displays&amp;nbsp; (Reimbursement Follow-up)&lt;/span&gt;" style="rounded=1;whiteSpace=wrap;html=1;arcSize=40;fontColor=#000000;fillColor=#ffffc0;strokeColor=#ff0000;" vertex="1" parent="1">
          <mxGeometry x="-1105" y="325" width="285" height="50" as="geometry" />
        </mxCell>
        <mxCell id="884JPYB7_QhmBYuowr3j-103" style="edgeStyle=orthogonalEdgeStyle;rounded=0;orthogonalLoop=1;jettySize=auto;html=1;exitX=0.5;exitY=1;exitDx=0;exitDy=0;" edge="1" parent="1" source="884JPYB7_QhmBYuowr3j-100" target="884JPYB7_QhmBYuowr3j-102">
          <mxGeometry relative="1" as="geometry" />
        </mxCell>
        <mxCell id="884JPYB7_QhmBYuowr3j-100" value="&lt;span style=&quot;font-family: Helvetica, &amp;quot;VP Default&amp;quot;; font-weight: 700; text-align: left; background-color: rgb(248, 249, 250);&quot;&gt;User clicks on ( Paper Review )&lt;/span&gt;" style="rounded=1;whiteSpace=wrap;html=1;arcSize=40;fontColor=#000000;fillColor=#ffffc0;strokeColor=#ff0000;" vertex="1" parent="1">
          <mxGeometry x="-1610" y="420" width="215" height="50" as="geometry" />
        </mxCell>
        <mxCell id="884JPYB7_QhmBYuowr3j-106" style="edgeStyle=orthogonalEdgeStyle;rounded=0;orthogonalLoop=1;jettySize=auto;html=1;exitX=0.5;exitY=1;exitDx=0;exitDy=0;" edge="1" parent="1" source="884JPYB7_QhmBYuowr3j-102" target="884JPYB7_QhmBYuowr3j-105">
          <mxGeometry relative="1" as="geometry" />
        </mxCell>
        <mxCell id="884JPYB7_QhmBYuowr3j-102" value="&lt;div style=&quot;text-align: left;&quot;&gt;&lt;span style=&quot;color: light-dark(rgb(0, 0, 0), rgb(237, 237, 237)); background-color: rgb(248, 249, 250);&quot;&gt;&lt;font face=&quot;Helvetica, VP Default&quot;&gt;&lt;b&gt;WhatsApp Displays ( Please choose an insurance company )&amp;nbsp;&lt;/b&gt;&lt;/font&gt;&lt;/span&gt;&lt;/div&gt;" style="rounded=1;whiteSpace=wrap;html=1;arcSize=40;fontColor=#000000;fillColor=#ffffc0;strokeColor=#ff0000;" vertex="1" parent="1">
          <mxGeometry x="-1687.5" y="510" width="370" height="50" as="geometry" />
        </mxCell>
        <mxCell id="884JPYB7_QhmBYuowr3j-108" style="edgeStyle=orthogonalEdgeStyle;rounded=0;orthogonalLoop=1;jettySize=auto;html=1;exitX=0.5;exitY=1;exitDx=0;exitDy=0;" edge="1" parent="1" source="884JPYB7_QhmBYuowr3j-105" target="884JPYB7_QhmBYuowr3j-107">
          <mxGeometry relative="1" as="geometry" />
        </mxCell>
        <mxCell id="884JPYB7_QhmBYuowr3j-105" value="&lt;div style=&quot;text-align: left;&quot;&gt;&lt;span style=&quot;color: light-dark(rgb(0, 0, 0), rgb(237, 237, 237)); background-color: rgb(248, 249, 250);&quot;&gt;&lt;font face=&quot;Helvetica, VP Default&quot;&gt;&lt;b&gt;&amp;nbsp; &amp;nbsp; &amp;nbsp; &amp;nbsp; &amp;nbsp; &amp;nbsp; &amp;nbsp; &amp;nbsp; &amp;nbsp; &amp;nbsp; &amp;nbsp; &amp;nbsp; &amp;nbsp; &amp;nbsp; &amp;nbsp; &amp;nbsp; &amp;nbsp; &amp;nbsp; &amp;nbsp; &amp;nbsp; &amp;nbsp; &amp;nbsp; WhatsApp Displays the following insurance companies:&amp;nbsp; &amp;nbsp; &amp;nbsp; &amp;nbsp; &amp;nbsp; &amp;nbsp; &amp;nbsp; &amp;nbsp; &amp;nbsp; &amp;nbsp; &amp;nbsp; &amp;nbsp; &amp;nbsp; &amp;nbsp; &amp;nbsp; &amp;nbsp; &amp;nbsp; &amp;nbsp; &amp;nbsp; &amp;nbsp; &amp;nbsp; &amp;nbsp; &amp;nbsp; &amp;nbsp; &amp;nbsp; &amp;nbsp; &amp;nbsp; &amp;nbsp; &amp;nbsp; &amp;nbsp; &amp;nbsp; &amp;nbsp; &amp;nbsp; &amp;nbsp; &amp;nbsp; &amp;nbsp; &amp;nbsp; &amp;nbsp; &amp;nbsp; &amp;nbsp; &amp;nbsp; &amp;nbsp; &amp;nbsp; &amp;nbsp; &amp;nbsp; &amp;nbsp; &amp;nbsp; &amp;nbsp; &amp;nbsp; &amp;nbsp; &amp;nbsp; &amp;nbsp; &amp;nbsp; &amp;nbsp; &amp;nbsp; &amp;nbsp; &amp;nbsp; &amp;nbsp; &amp;nbsp; &amp;nbsp; &amp;nbsp; &amp;nbsp; &amp;nbsp; &amp;nbsp; &amp;nbsp; &amp;nbsp; &amp;nbsp; &amp;nbsp; &amp;nbsp; &amp;nbsp; &amp;nbsp; &amp;nbsp; &amp;nbsp; &amp;nbsp; &amp;nbsp; &amp;nbsp; &amp;nbsp; &amp;nbsp; &amp;nbsp; &amp;nbsp; &amp;nbsp; &amp;nbsp; &amp;nbsp; &amp;nbsp; &amp;nbsp; &amp;nbsp; &amp;nbsp; &amp;nbsp; &amp;nbsp; &amp;nbsp; &amp;nbsp; &amp;nbsp; &amp;nbsp; &amp;nbsp; &amp;nbsp; &amp;nbsp; &amp;nbsp; &amp;nbsp; &amp;nbsp; &amp;nbsp; &amp;nbsp; &amp;nbsp; &amp;nbsp; &amp;nbsp; &amp;nbsp; &amp;nbsp; &amp;nbsp; &amp;nbsp; &amp;nbsp; &amp;nbsp; &amp;nbsp; &amp;nbsp; &amp;nbsp; &amp;nbsp; &amp;nbsp; &amp;nbsp; &amp;nbsp; &amp;nbsp; &amp;nbsp; &amp;nbsp; &amp;nbsp; &amp;nbsp; &amp;nbsp; &amp;nbsp;&lt;/b&gt;&lt;/font&gt;&lt;/span&gt;&lt;span style=&quot;background-color: rgb(248, 249, 250); font-family: Helvetica, &amp;quot;VP Default&amp;quot;; font-weight: 700; color: light-dark(rgb(0, 0, 0), rgb(237, 237, 237));&quot;&gt;Al Wataniya insurance&lt;/span&gt;&lt;/div&gt;&lt;span style=&quot;font-family: Helvetica, &amp;quot;VP Default&amp;quot;; font-weight: 700; text-align: left; background-color: rgb(248, 249, 250);&quot;&gt;Allianz&lt;/span&gt;&lt;br style=&quot;box-sizing: content-box; -webkit-font-smoothing: antialiased; scrollbar-width: thin; padding: 0px; margin: 0px; font-family: Helvetica, &amp;quot;VP Default&amp;quot;; font-weight: 700; text-align: left; background-color: rgb(248, 249, 250);&quot;&gt;&lt;span style=&quot;font-family: Helvetica, &amp;quot;VP Default&amp;quot;; font-weight: 700; text-align: left; background-color: rgb(248, 249, 250);&quot;&gt;Arope&lt;/span&gt;&lt;br style=&quot;box-sizing: content-box; -webkit-font-smoothing: antialiased; scrollbar-width: thin; padding: 0px; margin: 0px; font-family: Helvetica, &amp;quot;VP Default&amp;quot;; font-weight: 700; text-align: left; background-color: rgb(248, 249, 250);&quot;&gt;&lt;span style=&quot;font-family: Helvetica, &amp;quot;VP Default&amp;quot;; font-weight: 700; text-align: left; background-color: rgb(248, 249, 250);&quot;&gt;AXA&lt;/span&gt;&lt;br style=&quot;box-sizing: content-box; -webkit-font-smoothing: antialiased; scrollbar-width: thin; padding: 0px; margin: 0px; font-family: Helvetica, &amp;quot;VP Default&amp;quot;; font-weight: 700; text-align: left; background-color: rgb(248, 249, 250);&quot;&gt;&lt;span style=&quot;font-family: Helvetica, &amp;quot;VP Default&amp;quot;; font-weight: 700; text-align: left; background-color: rgb(248, 249, 250);&quot;&gt;Chubb&lt;/span&gt;&lt;br style=&quot;box-sizing: content-box; -webkit-font-smoothing: antialiased; scrollbar-width: thin; padding: 0px; margin: 0px; font-family: Helvetica, &amp;quot;VP Default&amp;quot;; font-weight: 700; text-align: left; background-color: rgb(248, 249, 250);&quot;&gt;&lt;span style=&quot;font-family: Helvetica, &amp;quot;VP Default&amp;quot;; font-weight: 700; text-align: left; background-color: rgb(248, 249, 250);&quot;&gt;Delta&lt;/span&gt;&lt;br style=&quot;box-sizing: content-box; -webkit-font-smoothing: antialiased; scrollbar-width: thin; padding: 0px; margin: 0px; font-family: Helvetica, &amp;quot;VP Default&amp;quot;; font-weight: 700; text-align: left; background-color: rgb(248, 249, 250);&quot;&gt;&lt;span style=&quot;font-family: Helvetica, &amp;quot;VP Default&amp;quot;; font-weight: 700; text-align: left; background-color: rgb(248, 249, 250);&quot;&gt;Egyptian Takaful - EGTAK&lt;/span&gt;&lt;br style=&quot;box-sizing: content-box; -webkit-font-smoothing: antialiased; scrollbar-width: thin; padding: 0px; margin: 0px; font-family: Helvetica, &amp;quot;VP Default&amp;quot;; font-weight: 700; text-align: left; background-color: rgb(248, 249, 250);&quot;&gt;&lt;span style=&quot;font-family: Helvetica, &amp;quot;VP Default&amp;quot;; font-weight: 700; text-align: left; background-color: rgb(248, 249, 250);&quot;&gt;GIG Egypt Life Takaful&lt;/span&gt;&lt;br style=&quot;box-sizing: content-box; -webkit-font-smoothing: antialiased; scrollbar-width: thin; padding: 0px; margin: 0px; font-family: Helvetica, &amp;quot;VP Default&amp;quot;; font-weight: 700; text-align: left; background-color: rgb(248, 249, 250);&quot;&gt;&lt;span style=&quot;font-family: Helvetica, &amp;quot;VP Default&amp;quot;; font-weight: 700; text-align: left; background-color: rgb(248, 249, 250);&quot;&gt;Libano Suisse&lt;/span&gt;&lt;br style=&quot;box-sizing: content-box; -webkit-font-smoothing: antialiased; scrollbar-width: thin; padding: 0px; margin: 0px; font-family: Helvetica, &amp;quot;VP Default&amp;quot;; font-weight: 700; text-align: left; background-color: rgb(248, 249, 250);&quot;&gt;&lt;span style=&quot;font-family: Helvetica, &amp;quot;VP Default&amp;quot;; font-weight: 700; text-align: left; background-color: rgb(248, 249, 250);&quot;&gt;Metlife&lt;/span&gt;&lt;br style=&quot;box-sizing: content-box; -webkit-font-smoothing: antialiased; scrollbar-width: thin; padding: 0px; margin: 0px; font-family: Helvetica, &amp;quot;VP Default&amp;quot;; font-weight: 700; text-align: left; background-color: rgb(248, 249, 250);&quot;&gt;&lt;span style=&quot;font-family: Helvetica, &amp;quot;VP Default&amp;quot;; font-weight: 700; text-align: left; background-color: rgb(248, 249, 250);&quot;&gt;Misr Insurance&lt;/span&gt;&lt;br style=&quot;box-sizing: content-box; -webkit-font-smoothing: antialiased; scrollbar-width: thin; padding: 0px; margin: 0px; font-family: Helvetica, &amp;quot;VP Default&amp;quot;; font-weight: 700; text-align: left; background-color: rgb(248, 249, 250);&quot;&gt;&lt;span style=&quot;font-family: Helvetica, &amp;quot;VP Default&amp;quot;; font-weight: 700; text-align: left; background-color: rgb(248, 249, 250);&quot;&gt;Misr Life Insurance - Takaful&lt;/span&gt;&lt;br style=&quot;box-sizing: content-box; -webkit-font-smoothing: antialiased; scrollbar-width: thin; padding: 0px; margin: 0px; font-family: Helvetica, &amp;quot;VP Default&amp;quot;; font-weight: 700; text-align: left; background-color: rgb(248, 249, 250);&quot;&gt;&lt;span style=&quot;font-family: Helvetica, &amp;quot;VP Default&amp;quot;; font-weight: 700; text-align: left; background-color: rgb(248, 249, 250);&quot;&gt;Misr Takaful Insurance&lt;/span&gt;&lt;br style=&quot;box-sizing: content-box; -webkit-font-smoothing: antialiased; scrollbar-width: thin; padding: 0px; margin: 0px; font-family: Helvetica, &amp;quot;VP Default&amp;quot;; font-weight: 700; text-align: left; background-color: rgb(248, 249, 250);&quot;&gt;&lt;span style=&quot;font-family: Helvetica, &amp;quot;VP Default&amp;quot;; font-weight: 700; text-align: left; background-color: rgb(248, 249, 250);&quot;&gt;Orient&lt;/span&gt;&lt;br style=&quot;box-sizing: content-box; -webkit-font-smoothing: antialiased; scrollbar-width: thin; padding: 0px; margin: 0px; font-family: Helvetica, &amp;quot;VP Default&amp;quot;; font-weight: 700; text-align: left; background-color: rgb(248, 249, 250);&quot;&gt;&lt;span style=&quot;font-family: Helvetica, &amp;quot;VP Default&amp;quot;; font-weight: 700; text-align: left; background-color: rgb(248, 249, 250);&quot;&gt;Royal&lt;/span&gt;&lt;br style=&quot;box-sizing: content-box; -webkit-font-smoothing: antialiased; scrollbar-width: thin; padding: 0px; margin: 0px; font-family: Helvetica, &amp;quot;VP Default&amp;quot;; font-weight: 700; text-align: left; background-color: rgb(248, 249, 250);&quot;&gt;&lt;span style=&quot;font-family: Helvetica, &amp;quot;VP Default&amp;quot;; font-weight: 700; text-align: left; background-color: rgb(248, 249, 250);&quot;&gt;Salama Takaful Insurance&lt;/span&gt;&lt;br style=&quot;box-sizing: content-box; -webkit-font-smoothing: antialiased; scrollbar-width: thin; padding: 0px; margin: 0px; font-family: Helvetica, &amp;quot;VP Default&amp;quot;; font-weight: 700; text-align: left; background-color: rgb(248, 249, 250);&quot;&gt;&lt;span style=&quot;font-family: Helvetica, &amp;quot;VP Default&amp;quot;; font-weight: 700; text-align: left; background-color: rgb(248, 249, 250);&quot;&gt;Sarwa Insurance&lt;/span&gt;&lt;br style=&quot;box-sizing: content-box; -webkit-font-smoothing: antialiased; scrollbar-width: thin; padding: 0px; margin: 0px; font-family: Helvetica, &amp;quot;VP Default&amp;quot;; font-weight: 700; text-align: left; background-color: rgb(248, 249, 250);&quot;&gt;&lt;span style=&quot;font-family: Helvetica, &amp;quot;VP Default&amp;quot;; font-weight: 700; text-align: left; background-color: rgb(248, 249, 250);&quot;&gt;Sarwa Life Insurance&lt;/span&gt;&lt;br style=&quot;box-sizing: content-box; -webkit-font-smoothing: antialiased; scrollbar-width: thin; padding: 0px; margin: 0px; font-family: Helvetica, &amp;quot;VP Default&amp;quot;; font-weight: 700; text-align: left; background-color: rgb(248, 249, 250);&quot;&gt;&lt;div style=&quot;text-align: left;&quot;&gt;&lt;span style=&quot;color: light-dark(rgb(0, 0, 0), rgb(237, 237, 237)); background-color: rgb(248, 249, 250);&quot;&gt;&lt;span style=&quot;font-family: Helvetica, &amp;quot;VP Default&amp;quot;; font-weight: 700; color: light-dark(rgb(0, 0, 0), rgb(237, 237, 237));&quot;&gt;&amp;nbsp; &amp;nbsp; &amp;nbsp; &amp;nbsp; &amp;nbsp; &amp;nbsp; &amp;nbsp; &amp;nbsp; &amp;nbsp; &amp;nbsp; &amp;nbsp; &amp;nbsp; &amp;nbsp; &amp;nbsp; &amp;nbsp; &amp;nbsp; &amp;nbsp; &amp;nbsp; &amp;nbsp; &amp;nbsp; &amp;nbsp; &amp;nbsp; &amp;nbsp; &amp;nbsp; &amp;nbsp; &amp;nbsp; &amp;nbsp; &amp;nbsp; &amp;nbsp; &amp;nbsp; &amp;nbsp; &amp;nbsp; &amp;nbsp; &amp;nbsp; &amp;nbsp; &amp;nbsp; &amp;nbsp; Wethaq&lt;/span&gt;&lt;font face=&quot;Helvetica, VP Default&quot;&gt;&lt;b&gt;&amp;nbsp;&lt;/b&gt;&lt;/font&gt;&lt;/span&gt;&lt;/div&gt;" style="rounded=1;whiteSpace=wrap;html=1;arcSize=40;fontColor=#000000;fillColor=#ffffc0;strokeColor=#ff0000;" vertex="1" parent="1">
          <mxGeometry x="-1776.25" y="600" width="547.5" height="330" as="geometry" />
        </mxCell>
        <mxCell id="884JPYB7_QhmBYuowr3j-110" style="edgeStyle=orthogonalEdgeStyle;rounded=0;orthogonalLoop=1;jettySize=auto;html=1;exitX=0.5;exitY=1;exitDx=0;exitDy=0;" edge="1" parent="1" source="884JPYB7_QhmBYuowr3j-107" target="884JPYB7_QhmBYuowr3j-109">
          <mxGeometry relative="1" as="geometry" />
        </mxCell>
        <mxCell id="884JPYB7_QhmBYuowr3j-107" value="&lt;span style=&quot;font-family: Helvetica, &amp;quot;VP Default&amp;quot;; font-weight: 700; text-align: left; background-color: rgb(248, 249, 250);&quot;&gt;User selects an insurance company&lt;/span&gt;" style="rounded=1;whiteSpace=wrap;html=1;arcSize=40;fontColor=#000000;fillColor=#ffffc0;strokeColor=#ff0000;" vertex="1" parent="1">
          <mxGeometry x="-1610" y="980" width="215" height="50" as="geometry" />
        </mxCell>
        <mxCell id="884JPYB7_QhmBYuowr3j-112" style="edgeStyle=orthogonalEdgeStyle;rounded=0;orthogonalLoop=1;jettySize=auto;html=1;exitX=0.5;exitY=1;exitDx=0;exitDy=0;entryX=0.5;entryY=0;entryDx=0;entryDy=0;" edge="1" parent="1" source="884JPYB7_QhmBYuowr3j-109" target="884JPYB7_QhmBYuowr3j-111">
          <mxGeometry relative="1" as="geometry" />
        </mxCell>
        <mxCell id="884JPYB7_QhmBYuowr3j-109" value="&lt;span style=&quot;font-family: Helvetica, &amp;quot;VP Default&amp;quot;; font-weight: 700; text-align: left; background-color: rgb(248, 249, 250);&quot;&gt;WhatsApp display the selected insurance company&#39;s PDF&lt;/span&gt;" style="rounded=1;whiteSpace=wrap;html=1;arcSize=40;fontColor=#000000;fillColor=#ffffc0;strokeColor=#ff0000;" vertex="1" parent="1">
          <mxGeometry x="-1610" y="1070" width="215" height="50" as="geometry" />
        </mxCell>
        <mxCell id="884JPYB7_QhmBYuowr3j-114" style="edgeStyle=orthogonalEdgeStyle;rounded=0;orthogonalLoop=1;jettySize=auto;html=1;exitX=0.5;exitY=1;exitDx=0;exitDy=0;entryX=0.5;entryY=0;entryDx=0;entryDy=0;" edge="1" parent="1" source="884JPYB7_QhmBYuowr3j-111" target="884JPYB7_QhmBYuowr3j-113">
          <mxGeometry relative="1" as="geometry" />
        </mxCell>
        <mxCell id="884JPYB7_QhmBYuowr3j-111" value="&lt;span style=&quot;font-family: Helvetica, &amp;quot;VP Default&amp;quot;; font-weight: 700; text-align: left; background-color: rgb(248, 249, 250);&quot;&gt;WhatsApp displays: Attached are the required documents for each type of reimbursement&lt;/span&gt;" style="rounded=1;whiteSpace=wrap;html=1;arcSize=40;fontColor=#000000;fillColor=#ffffc0;strokeColor=#ff0000;" vertex="1" parent="1">
          <mxGeometry x="-1620" y="1150" width="225" height="60" as="geometry" />
        </mxCell>
        <mxCell id="884JPYB7_QhmBYuowr3j-116" style="edgeStyle=orthogonalEdgeStyle;rounded=0;orthogonalLoop=1;jettySize=auto;html=1;exitX=0.5;exitY=1;exitDx=0;exitDy=0;entryX=0.5;entryY=0;entryDx=0;entryDy=0;" edge="1" parent="1" source="884JPYB7_QhmBYuowr3j-113" target="884JPYB7_QhmBYuowr3j-115">
          <mxGeometry relative="1" as="geometry" />
        </mxCell>
        <mxCell id="884JPYB7_QhmBYuowr3j-113" value="&lt;span style=&quot;font-family: Helvetica, &amp;quot;VP Default&amp;quot;; font-weight: 700; text-align: left; background-color: rgb(248, 249, 250);&quot;&gt;WhatsApp displays:&amp;nbsp;&lt;/span&gt;&lt;span style=&quot;font-family: Helvetica, &amp;quot;VP Default&amp;quot;; font-weight: 700; text-align: left; background-color: rgb(248, 249, 250);&quot;&gt;Do you need to communicate with reimbursement team ?&lt;/span&gt;" style="rounded=1;whiteSpace=wrap;html=1;arcSize=40;fontColor=#000000;fillColor=#ffffc0;strokeColor=#ff0000;" vertex="1" parent="1">
          <mxGeometry x="-1620" y="1260" width="225" height="60" as="geometry" />
        </mxCell>
        <mxCell id="884JPYB7_QhmBYuowr3j-118" style="edgeStyle=orthogonalEdgeStyle;rounded=0;orthogonalLoop=1;jettySize=auto;html=1;exitX=0;exitY=0.5;exitDx=0;exitDy=0;entryX=1;entryY=0.5;entryDx=0;entryDy=0;" edge="1" parent="1" source="884JPYB7_QhmBYuowr3j-115" target="884JPYB7_QhmBYuowr3j-117">
          <mxGeometry relative="1" as="geometry" />
        </mxCell>
        <mxCell id="884JPYB7_QhmBYuowr3j-123" style="edgeStyle=orthogonalEdgeStyle;rounded=0;orthogonalLoop=1;jettySize=auto;html=1;exitX=1;exitY=0.5;exitDx=0;exitDy=0;" edge="1" parent="1" source="884JPYB7_QhmBYuowr3j-115" target="884JPYB7_QhmBYuowr3j-122">
          <mxGeometry relative="1" as="geometry" />
        </mxCell>
        <mxCell id="884JPYB7_QhmBYuowr3j-115" value="Decision" style="rhombus;whiteSpace=wrap;html=1;fontColor=#000000;fillColor=#ffffc0;strokeColor=#ff0000;" vertex="1" parent="1">
          <mxGeometry x="-1547.5" y="1360" width="80" height="40" as="geometry" />
        </mxCell>
        <mxCell id="884JPYB7_QhmBYuowr3j-117" value="&lt;div style=&quot;text-align: left;&quot;&gt;&lt;span style=&quot;color: light-dark(rgb(0, 0, 0), rgb(237, 237, 237)); background-color: rgb(248, 249, 250);&quot;&gt;&lt;font face=&quot;Helvetica, VP Default&quot;&gt;&lt;b&gt;WhatsApp displays: thanks for contacting beyond insurance brokerage&amp;nbsp;&lt;/b&gt;&lt;/font&gt;&lt;/span&gt;&lt;/div&gt;" style="rounded=1;whiteSpace=wrap;html=1;arcSize=40;fontColor=#000000;fillColor=#ffffc0;strokeColor=#ff0000;" vertex="1" parent="1">
          <mxGeometry x="-1800" y="1355" width="215" height="50" as="geometry" />
        </mxCell>
        <mxCell id="884JPYB7_QhmBYuowr3j-119" value="&lt;b&gt;&lt;font style=&quot;font-size: 18px;&quot;&gt;NO&lt;/font&gt;&lt;/b&gt;" style="text;html=1;align=center;verticalAlign=middle;resizable=0;points=[];autosize=1;strokeColor=none;fillColor=none;" vertex="1" parent="1">
          <mxGeometry x="-1585" y="1343" width="50" height="40" as="geometry" />
        </mxCell>
        <mxCell id="884JPYB7_QhmBYuowr3j-120" value="&lt;div style=&quot;text-align: left;&quot;&gt;&lt;span style=&quot;color: light-dark(rgb(0, 0, 0), rgb(237, 237, 237)); background-color: rgb(248, 249, 250);&quot;&gt;&lt;font face=&quot;Helvetica, VP Default&quot;&gt;&lt;b&gt;Close chat&lt;/b&gt;&lt;/font&gt;&lt;/span&gt;&lt;/div&gt;" style="rounded=1;whiteSpace=wrap;html=1;arcSize=40;fontColor=#000000;fillColor=#ffffc0;strokeColor=#ff0000;" vertex="1" parent="1">
          <mxGeometry x="-1742.5" y="1460" width="100" height="40" as="geometry" />
        </mxCell>
        <mxCell id="884JPYB7_QhmBYuowr3j-121" style="edgeStyle=orthogonalEdgeStyle;rounded=0;orthogonalLoop=1;jettySize=auto;html=1;exitX=0.5;exitY=1;exitDx=0;exitDy=0;" edge="1" parent="1" source="884JPYB7_QhmBYuowr3j-117" target="884JPYB7_QhmBYuowr3j-120">
          <mxGeometry relative="1" as="geometry" />
        </mxCell>
        <mxCell id="884JPYB7_QhmBYuowr3j-122" value="&lt;span style=&quot;font-family: Helvetica, &amp;quot;VP Default&amp;quot;; font-weight: 700; text-align: left; background-color: rgb(248, 249, 250);&quot;&gt;WhatsApp displays:&amp;nbsp; &amp;nbsp; &amp;nbsp; &amp;nbsp; &amp;nbsp; &amp;nbsp; &amp;nbsp; &amp;nbsp; &amp;nbsp; &amp;nbsp; &amp;nbsp; &amp;nbsp; &amp;nbsp; &amp;nbsp; &amp;nbsp; &amp;nbsp; &amp;nbsp; &amp;nbsp; &amp;nbsp; &amp;nbsp; &amp;nbsp; &amp;nbsp; &amp;nbsp; &amp;nbsp; &amp;nbsp; &amp;nbsp; &amp;nbsp; &amp;nbsp; &amp;nbsp; &amp;nbsp; &amp;nbsp; &amp;nbsp; &amp;nbsp; &amp;nbsp; &amp;nbsp; &amp;nbsp; &amp;nbsp; &amp;nbsp; &amp;nbsp; &amp;nbsp; &amp;nbsp; &amp;nbsp; &amp;nbsp; &amp;nbsp; &amp;nbsp; &amp;nbsp; &amp;nbsp; &amp;nbsp; &amp;nbsp; &amp;nbsp; &amp;nbsp; &amp;nbsp; &amp;nbsp; &amp;nbsp; &amp;nbsp; &amp;nbsp; &amp;nbsp; &amp;nbsp; &amp;nbsp; &amp;nbsp; &amp;nbsp; &amp;nbsp; &amp;nbsp; &amp;nbsp; You will receive a response within one business day from 9:00 AM to 3:00 PM, Sunday to Thursday.&amp;nbsp; &amp;nbsp; &amp;nbsp; &amp;nbsp; &amp;nbsp; &amp;nbsp; &amp;nbsp; &amp;nbsp; &amp;nbsp; &amp;nbsp; &amp;nbsp; &amp;nbsp; &amp;nbsp; &amp;nbsp; &amp;nbsp; &amp;nbsp; &amp;nbsp; &amp;nbsp; &amp;nbsp; &amp;nbsp; &amp;nbsp; &amp;nbsp; &amp;nbsp; &amp;nbsp; &amp;nbsp; &amp;nbsp; &amp;nbsp; &amp;nbsp; &amp;nbsp; &amp;nbsp; &amp;nbsp; &amp;nbsp; &amp;nbsp; &amp;nbsp; &amp;nbsp; &amp;nbsp; &amp;nbsp; &amp;nbsp; &amp;nbsp; &amp;nbsp; &amp;nbsp; &amp;nbsp; &amp;nbsp; &amp;nbsp; &amp;nbsp; &amp;nbsp; &amp;nbsp; &amp;nbsp; &amp;nbsp; &amp;nbsp; &amp;nbsp; &amp;nbsp; &amp;nbsp; &amp;nbsp; &amp;nbsp; &amp;nbsp; &amp;nbsp; &amp;nbsp; &amp;nbsp; &amp;nbsp; &amp;nbsp; &amp;nbsp; &amp;nbsp; &amp;nbsp; &amp;nbsp; &amp;nbsp; &amp;nbsp; &amp;nbsp; &amp;nbsp; &amp;nbsp; &amp;nbsp;Please send a photo of the medical card related to the requested reimbursement if it has not been sent before&amp;nbsp; &amp;nbsp; &amp;nbsp; &amp;nbsp; &amp;nbsp; &amp;nbsp; &amp;nbsp; &amp;nbsp; &amp;nbsp; &amp;nbsp; &amp;nbsp; &amp;nbsp; &amp;nbsp; &amp;nbsp; &amp;nbsp; &amp;nbsp; &amp;nbsp; &amp;nbsp; &amp;nbsp; &amp;nbsp; &amp;nbsp; &amp;nbsp; &amp;nbsp; &amp;nbsp; &amp;nbsp;&amp;nbsp;&lt;/span&gt;" style="rounded=1;whiteSpace=wrap;html=1;arcSize=40;fontColor=#000000;fillColor=#ffffc0;strokeColor=#ff0000;" vertex="1" parent="1">
          <mxGeometry x="-1350" y="1265" width="275" height="230" as="geometry" />
        </mxCell>
        <mxCell id="884JPYB7_QhmBYuowr3j-124" value="&lt;b&gt;&lt;font style=&quot;font-size: 18px;&quot;&gt;YES&lt;/font&gt;&lt;/b&gt;" style="text;html=1;align=center;verticalAlign=middle;resizable=0;points=[];autosize=1;strokeColor=none;fillColor=none;" vertex="1" parent="1">
          <mxGeometry x="-1452.5" y="1343" width="60" height="40" as="geometry" />
        </mxCell>
        <mxCell id="884JPYB7_QhmBYuowr3j-131" style="edgeStyle=orthogonalEdgeStyle;rounded=0;orthogonalLoop=1;jettySize=auto;html=1;exitX=0.5;exitY=1;exitDx=0;exitDy=0;" edge="1" parent="1" source="884JPYB7_QhmBYuowr3j-125">
          <mxGeometry relative="1" as="geometry">
            <mxPoint x="-962.5" y="610" as="targetPoint" />
          </mxGeometry>
        </mxCell>
        <mxCell id="884JPYB7_QhmBYuowr3j-125" value="&lt;span style=&quot;font-family: Helvetica, &amp;quot;VP Default&amp;quot;; font-weight: 700; text-align: left; background-color: rgb(248, 249, 250);&quot;&gt;WhatsApp displays&amp;nbsp; ( please choose a TPA )&lt;/span&gt;" style="rounded=1;whiteSpace=wrap;html=1;arcSize=40;fontColor=#000000;fillColor=#ffffc0;strokeColor=#ff0000;" vertex="1" parent="1">
          <mxGeometry x="-1105" y="520" width="285" height="50" as="geometry" />
        </mxCell>
        <mxCell id="884JPYB7_QhmBYuowr3j-129" style="edgeStyle=orthogonalEdgeStyle;rounded=0;orthogonalLoop=1;jettySize=auto;html=1;exitX=0.5;exitY=1;exitDx=0;exitDy=0;entryX=0.5;entryY=0;entryDx=0;entryDy=0;" edge="1" parent="1" source="884JPYB7_QhmBYuowr3j-127" target="884JPYB7_QhmBYuowr3j-125">
          <mxGeometry relative="1" as="geometry" />
        </mxCell>
        <mxCell id="884JPYB7_QhmBYuowr3j-127" value="&lt;span style=&quot;font-family: Helvetica, &amp;quot;VP Default&amp;quot;; font-weight: 700; text-align: left; background-color: rgb(248, 249, 250);&quot;&gt;User clicks on&amp;nbsp; (Reimbursement Follow-up)&lt;/span&gt;" style="rounded=1;whiteSpace=wrap;html=1;arcSize=40;fontColor=#000000;fillColor=#ffffc0;strokeColor=#ff0000;" vertex="1" parent="1">
          <mxGeometry x="-1105" y="420" width="285" height="50" as="geometry" />
        </mxCell>
        <mxCell id="884JPYB7_QhmBYuowr3j-132" value="&lt;span style=&quot;font-family: Helvetica, &amp;quot;VP Default&amp;quot;; font-weight: 700; text-align: left; background-color: rgb(248, 249, 250);&quot;&gt;&amp;nbsp; &amp;nbsp; &amp;nbsp; &amp;nbsp; &amp;nbsp; &amp;nbsp; &amp;nbsp; &amp;nbsp; &amp;nbsp; &amp;nbsp; &amp;nbsp; &amp;nbsp;WhatsApp displays:&amp;nbsp; &amp;nbsp; &amp;nbsp; &amp;nbsp; &amp;nbsp; &amp;nbsp; &amp;nbsp; &amp;nbsp; &amp;nbsp; &amp;nbsp; &amp;nbsp; &amp;nbsp; &amp;nbsp; &amp;nbsp; AXA&lt;/span&gt;&lt;div&gt;&lt;span style=&quot;font-family: Helvetica, &amp;quot;VP Default&amp;quot;; font-weight: 700; text-align: left; background-color: rgb(248, 249, 250);&quot;&gt;Metlife&lt;/span&gt;&lt;/div&gt;&lt;div&gt;&lt;span style=&quot;font-family: Helvetica, &amp;quot;VP Default&amp;quot;; font-weight: 700; text-align: left; background-color: rgb(248, 249, 250);&quot;&gt;Globemed&lt;/span&gt;&lt;/div&gt;&lt;div&gt;&lt;span style=&quot;font-family: Helvetica, &amp;quot;VP Default&amp;quot;; font-weight: 700; text-align: left; background-color: rgb(248, 249, 250);&quot;&gt;NextCare&lt;/span&gt;&lt;/div&gt;&lt;div&gt;&lt;span style=&quot;font-family: Helvetica, &amp;quot;VP Default&amp;quot;; font-weight: 700; text-align: left; background-color: rgb(248, 249, 250);&quot;&gt;MedNet&lt;/span&gt;&lt;/div&gt;&lt;div&gt;&lt;span style=&quot;font-family: Helvetica, &amp;quot;VP Default&amp;quot;; font-weight: 700; text-align: left; background-color: rgb(248, 249, 250);&quot;&gt;MedRight&lt;/span&gt;&lt;/div&gt;&lt;div&gt;&lt;span style=&quot;font-family: Helvetica, &amp;quot;VP Default&amp;quot;; font-weight: 700; text-align: left; background-color: rgb(248, 249, 250);&quot;&gt;Misr Healthcare&lt;/span&gt;&lt;/div&gt;" style="rounded=1;whiteSpace=wrap;html=1;arcSize=40;fontColor=#000000;fillColor=#ffffc0;strokeColor=#ff0000;" vertex="1" parent="1">
          <mxGeometry x="-1090" y="610" width="285" height="140" as="geometry" />
        </mxCell>
        <mxCell id="884JPYB7_QhmBYuowr3j-136" style="edgeStyle=orthogonalEdgeStyle;rounded=0;orthogonalLoop=1;jettySize=auto;html=1;exitX=0.5;exitY=1;exitDx=0;exitDy=0;" edge="1" parent="1" source="884JPYB7_QhmBYuowr3j-133" target="884JPYB7_QhmBYuowr3j-135">
          <mxGeometry relative="1" as="geometry" />
        </mxCell>
        <mxCell id="884JPYB7_QhmBYuowr3j-133" value="&lt;span style=&quot;font-family: Helvetica, &amp;quot;VP Default&amp;quot;; font-weight: 700; text-align: left; background-color: rgb(248, 249, 250);&quot;&gt;User Selects a TPA&lt;/span&gt;" style="rounded=1;whiteSpace=wrap;html=1;arcSize=40;fontColor=#000000;fillColor=#ffffc0;strokeColor=#ff0000;" vertex="1" parent="1">
          <mxGeometry x="-1080" y="790" width="285" height="50" as="geometry" />
        </mxCell>
        <mxCell id="884JPYB7_QhmBYuowr3j-134" style="edgeStyle=orthogonalEdgeStyle;rounded=0;orthogonalLoop=1;jettySize=auto;html=1;exitX=0.5;exitY=1;exitDx=0;exitDy=0;entryX=0.455;entryY=0.08;entryDx=0;entryDy=0;entryPerimeter=0;" edge="1" parent="1" source="884JPYB7_QhmBYuowr3j-132" target="884JPYB7_QhmBYuowr3j-133">
          <mxGeometry relative="1" as="geometry" />
        </mxCell>
        <mxCell id="884JPYB7_QhmBYuowr3j-139" style="edgeStyle=orthogonalEdgeStyle;rounded=0;orthogonalLoop=1;jettySize=auto;html=1;exitX=0;exitY=0.5;exitDx=0;exitDy=0;entryX=1;entryY=0.5;entryDx=0;entryDy=0;" edge="1" parent="1" source="884JPYB7_QhmBYuowr3j-135" target="884JPYB7_QhmBYuowr3j-138">
          <mxGeometry relative="1" as="geometry" />
        </mxCell>
        <mxCell id="884JPYB7_QhmBYuowr3j-135" value="Is AXA the chosen TPA" style="rhombus;whiteSpace=wrap;html=1;fontColor=#000000;fillColor=#ffffc0;strokeColor=#ff0000;" vertex="1" parent="1">
          <mxGeometry x="-983.75" y="875" width="92.5" height="70" as="geometry" />
        </mxCell>
        <mxCell id="884JPYB7_QhmBYuowr3j-142" style="edgeStyle=orthogonalEdgeStyle;rounded=0;orthogonalLoop=1;jettySize=auto;html=1;exitX=0.5;exitY=1;exitDx=0;exitDy=0;entryX=0.5;entryY=0;entryDx=0;entryDy=0;" edge="1" parent="1" source="884JPYB7_QhmBYuowr3j-138" target="884JPYB7_QhmBYuowr3j-141">
          <mxGeometry relative="1" as="geometry" />
        </mxCell>
        <mxCell id="884JPYB7_QhmBYuowr3j-138" value="&lt;span style=&quot;font-family: Helvetica, &amp;quot;VP Default&amp;quot;; font-weight: 700; text-align: left; background-color: rgb(248, 249, 250);&quot;&gt;WhatsApp displays: Have you submitted the documents on the TPA&#39;s mobile app ?&lt;/span&gt;" style="rounded=1;whiteSpace=wrap;html=1;arcSize=40;fontColor=#000000;fillColor=#ffffc0;strokeColor=#ff0000;" vertex="1" parent="1">
          <mxGeometry x="-1245" y="880" width="220" height="60" as="geometry" />
        </mxCell>
        <mxCell id="884JPYB7_QhmBYuowr3j-140" value="NO" style="text;html=1;align=center;verticalAlign=middle;resizable=0;points=[];autosize=1;strokeColor=none;fillColor=none;" vertex="1" parent="1">
          <mxGeometry x="-1025" y="880" width="40" height="30" as="geometry" />
        </mxCell>
        <mxCell id="884JPYB7_QhmBYuowr3j-144" style="edgeStyle=orthogonalEdgeStyle;rounded=0;orthogonalLoop=1;jettySize=auto;html=1;exitX=0;exitY=0.5;exitDx=0;exitDy=0;entryX=0;entryY=0.5;entryDx=0;entryDy=0;" edge="1" parent="1" source="884JPYB7_QhmBYuowr3j-141" target="884JPYB7_QhmBYuowr3j-143">
          <mxGeometry relative="1" as="geometry" />
        </mxCell>
        <mxCell id="884JPYB7_QhmBYuowr3j-147" style="edgeStyle=orthogonalEdgeStyle;rounded=0;orthogonalLoop=1;jettySize=auto;html=1;exitX=1;exitY=0.5;exitDx=0;exitDy=0;entryX=0.25;entryY=0;entryDx=0;entryDy=0;" edge="1" parent="1" source="884JPYB7_QhmBYuowr3j-141" target="884JPYB7_QhmBYuowr3j-143">
          <mxGeometry relative="1" as="geometry" />
        </mxCell>
        <mxCell id="884JPYB7_QhmBYuowr3j-141" value="Decision" style="rhombus;whiteSpace=wrap;html=1;fontColor=#000000;fillColor=#ffffc0;strokeColor=#ff0000;" vertex="1" parent="1">
          <mxGeometry x="-1181.25" y="980" width="92.5" height="70" as="geometry" />
        </mxCell>
        <mxCell id="884JPYB7_QhmBYuowr3j-221" style="edgeStyle=orthogonalEdgeStyle;rounded=0;orthogonalLoop=1;jettySize=auto;html=1;exitX=0.5;exitY=1;exitDx=0;exitDy=0;" edge="1" parent="1" source="884JPYB7_QhmBYuowr3j-143" target="884JPYB7_QhmBYuowr3j-219">
          <mxGeometry relative="1" as="geometry" />
        </mxCell>
        <mxCell id="884JPYB7_QhmBYuowr3j-143" value="&lt;span style=&quot;font-family: Helvetica, &amp;quot;VP Default&amp;quot;; font-weight: 700; text-align: left; background-color: rgb(248, 249, 250);&quot;&gt;&amp;nbsp; &amp;nbsp; &amp;nbsp; &amp;nbsp; &amp;nbsp; &amp;nbsp; &amp;nbsp; &amp;nbsp; &amp;nbsp; &amp;nbsp;WhatsApp displays:&amp;nbsp; &amp;nbsp; &amp;nbsp; &amp;nbsp; &amp;nbsp; &amp;nbsp; &amp;nbsp; &amp;nbsp; &amp;nbsp; &amp;nbsp; You will receive a response within one business day from 9:00 AM to 3:00 PM, Sunday to Thursday&amp;nbsp; &amp;nbsp; &amp;nbsp; &amp;nbsp; &amp;nbsp; &amp;nbsp; &amp;nbsp; &amp;nbsp; &amp;nbsp; &amp;nbsp; &amp;nbsp; &amp;nbsp; &amp;nbsp; &amp;nbsp; &amp;nbsp; &amp;nbsp; &amp;nbsp; &amp;nbsp; &amp;nbsp; &amp;nbsp; &amp;nbsp; &amp;nbsp; &amp;nbsp; &amp;nbsp; &amp;nbsp; &amp;nbsp; &amp;nbsp; &amp;nbsp; &amp;nbsp; &amp;nbsp; &amp;nbsp; &amp;nbsp; &amp;nbsp; &amp;nbsp; &amp;nbsp; &amp;nbsp; &amp;nbsp; &amp;nbsp; &amp;nbsp; &amp;nbsp; &amp;nbsp; &amp;nbsp; &amp;nbsp; Please send a photo of the medical card related to the requested reimbursement if it has not been sent before&amp;nbsp;&lt;/span&gt;" style="rounded=1;whiteSpace=wrap;html=1;arcSize=40;fontColor=#000000;fillColor=#ffffc0;strokeColor=#ff0000;" vertex="1" parent="1">
          <mxGeometry x="-1050" y="1000" width="222.5" height="230" as="geometry" />
        </mxCell>
        <mxCell id="884JPYB7_QhmBYuowr3j-146" value="&lt;b&gt;&lt;font style=&quot;font-size: 18px;&quot;&gt;NO&lt;/font&gt;&lt;/b&gt;" style="text;html=1;align=center;verticalAlign=middle;resizable=0;points=[];autosize=1;strokeColor=none;fillColor=none;" vertex="1" parent="1">
          <mxGeometry x="-1200" y="1080" width="50" height="40" as="geometry" />
        </mxCell>
        <mxCell id="884JPYB7_QhmBYuowr3j-148" value="&lt;b&gt;&lt;font style=&quot;font-size: 18px;&quot;&gt;YES&lt;/font&gt;&lt;/b&gt;" style="text;html=1;align=center;verticalAlign=middle;resizable=0;points=[];autosize=1;strokeColor=none;fillColor=none;" vertex="1" parent="1">
          <mxGeometry x="-1075" y="950" width="60" height="40" as="geometry" />
        </mxCell>
        <mxCell id="884JPYB7_QhmBYuowr3j-149" style="edgeStyle=orthogonalEdgeStyle;rounded=0;orthogonalLoop=1;jettySize=auto;html=1;exitX=1;exitY=0.5;exitDx=0;exitDy=0;entryX=0.813;entryY=0.082;entryDx=0;entryDy=0;entryPerimeter=0;" edge="1" parent="1" source="884JPYB7_QhmBYuowr3j-135" target="884JPYB7_QhmBYuowr3j-143">
          <mxGeometry relative="1" as="geometry" />
        </mxCell>
        <mxCell id="884JPYB7_QhmBYuowr3j-150" value="&lt;b&gt;&lt;font style=&quot;font-size: 18px;&quot;&gt;YES&lt;/font&gt;&lt;/b&gt;" style="text;html=1;align=center;verticalAlign=middle;resizable=0;points=[];autosize=1;strokeColor=none;fillColor=none;" vertex="1" parent="1">
          <mxGeometry x="-875" y="950" width="60" height="40" as="geometry" />
        </mxCell>
        <mxCell id="884JPYB7_QhmBYuowr3j-153" value="&lt;b&gt;&lt;font style=&quot;font-size: 18px;&quot;&gt;Arabic Version&lt;/font&gt;&lt;/b&gt;" style="text;html=1;align=center;verticalAlign=middle;resizable=0;points=[];autosize=1;strokeColor=none;fillColor=none;" vertex="1" parent="1">
          <mxGeometry x="-1790" y="1560" width="150" height="40" as="geometry" />
        </mxCell>
        <mxCell id="884JPYB7_QhmBYuowr3j-156" style="edgeStyle=orthogonalEdgeStyle;rounded=0;orthogonalLoop=1;jettySize=auto;html=1;exitX=1;exitY=0.5;exitDx=0;exitDy=0;entryX=0;entryY=0.5;entryDx=0;entryDy=0;" edge="1" parent="1" source="884JPYB7_QhmBYuowr3j-154" target="884JPYB7_QhmBYuowr3j-155">
          <mxGeometry relative="1" as="geometry" />
        </mxCell>
        <mxCell id="884JPYB7_QhmBYuowr3j-154" value="tart" style="ellipse;html=1;shape=startState;fillColor=#000000;strokeColor=#ff0000;" vertex="1" parent="1">
          <mxGeometry x="-1770" y="1630" width="30" height="30" as="geometry" />
        </mxCell>
        <mxCell id="884JPYB7_QhmBYuowr3j-158" style="edgeStyle=orthogonalEdgeStyle;rounded=0;orthogonalLoop=1;jettySize=auto;html=1;exitX=1;exitY=0.5;exitDx=0;exitDy=0;entryX=0;entryY=0.5;entryDx=0;entryDy=0;" edge="1" parent="1" source="884JPYB7_QhmBYuowr3j-155" target="884JPYB7_QhmBYuowr3j-157">
          <mxGeometry relative="1" as="geometry" />
        </mxCell>
        <mxCell id="884JPYB7_QhmBYuowr3j-155" value="&lt;div style=&quot;text-align: left;&quot;&gt;&lt;span style=&quot;color: light-dark(rgb(0, 0, 0), rgb(237, 237, 237)); background-color: rgb(248, 249, 250);&quot;&gt;&lt;font face=&quot;Helvetica, VP Default&quot;&gt;&lt;b&gt;MENU&lt;/b&gt;&lt;/font&gt;&lt;/span&gt;&lt;/div&gt;" style="rounded=1;whiteSpace=wrap;html=1;arcSize=50;fontColor=#000000;fillColor=#ffffc0;strokeColor=#ff0000;" vertex="1" parent="1">
          <mxGeometry x="-1690" y="1625" width="65" height="40" as="geometry" />
        </mxCell>
        <mxCell id="884JPYB7_QhmBYuowr3j-160" style="edgeStyle=orthogonalEdgeStyle;rounded=0;orthogonalLoop=1;jettySize=auto;html=1;exitX=1;exitY=0.5;exitDx=0;exitDy=0;entryX=0;entryY=0.5;entryDx=0;entryDy=0;" edge="1" parent="1" source="884JPYB7_QhmBYuowr3j-157" target="884JPYB7_QhmBYuowr3j-159">
          <mxGeometry relative="1" as="geometry" />
        </mxCell>
        <mxCell id="884JPYB7_QhmBYuowr3j-157" value="&lt;span style=&quot;font-family: Helvetica, &amp;quot;VP Default&amp;quot;; font-weight: 700; text-align: left; background-color: rgb(248, 249, 250);&quot;&gt;WhatsApp displays&amp;nbsp; (الاسترداد النقدي)&lt;/span&gt;" style="rounded=1;whiteSpace=wrap;html=1;arcSize=40;fontColor=#000000;fillColor=#ffffc0;strokeColor=#ff0000;" vertex="1" parent="1">
          <mxGeometry x="-1555" y="1600" width="230" height="90" as="geometry" />
        </mxCell>
        <mxCell id="884JPYB7_QhmBYuowr3j-162" style="edgeStyle=orthogonalEdgeStyle;rounded=0;orthogonalLoop=1;jettySize=auto;html=1;exitX=0.25;exitY=1;exitDx=0;exitDy=0;" edge="1" parent="1" source="884JPYB7_QhmBYuowr3j-159" target="884JPYB7_QhmBYuowr3j-161">
          <mxGeometry relative="1" as="geometry" />
        </mxCell>
        <mxCell id="884JPYB7_QhmBYuowr3j-159" value="&lt;span style=&quot;font-family: Helvetica, &amp;quot;VP Default&amp;quot;; font-weight: 700; text-align: left; background-color: rgb(248, 249, 250);&quot;&gt;User clicks on (الاسترداد النقدي&amp;nbsp;)&lt;/span&gt;" style="rounded=1;whiteSpace=wrap;html=1;arcSize=40;fontColor=#000000;fillColor=#ffffc0;strokeColor=#ff0000;" vertex="1" parent="1">
          <mxGeometry x="-1240" y="1600" width="230" height="90" as="geometry" />
        </mxCell>
        <mxCell id="884JPYB7_QhmBYuowr3j-164" style="edgeStyle=orthogonalEdgeStyle;rounded=0;orthogonalLoop=1;jettySize=auto;html=1;exitX=0.5;exitY=1;exitDx=0;exitDy=0;" edge="1" parent="1" source="884JPYB7_QhmBYuowr3j-161" target="884JPYB7_QhmBYuowr3j-163">
          <mxGeometry relative="1" as="geometry" />
        </mxCell>
        <mxCell id="884JPYB7_QhmBYuowr3j-161" value="&lt;span style=&quot;font-family: Helvetica, &amp;quot;VP Default&amp;quot;; font-weight: 700; text-align: left; background-color: rgb(248, 249, 250);&quot;&gt;WhatsApp displays : .شكرا لتواصلكم مع فريق بيوند , برجاء اختيار الخدمه&lt;/span&gt;" style="rounded=1;whiteSpace=wrap;html=1;arcSize=40;fontColor=#000000;fillColor=#ffffc0;strokeColor=#ff0000;" vertex="1" parent="1">
          <mxGeometry x="-1395" y="1730" width="230" height="90" as="geometry" />
        </mxCell>
        <mxCell id="884JPYB7_QhmBYuowr3j-166" style="edgeStyle=orthogonalEdgeStyle;rounded=0;orthogonalLoop=1;jettySize=auto;html=1;exitX=0;exitY=0.5;exitDx=0;exitDy=0;entryX=1;entryY=0.5;entryDx=0;entryDy=0;" edge="1" parent="1" source="884JPYB7_QhmBYuowr3j-163" target="884JPYB7_QhmBYuowr3j-165">
          <mxGeometry relative="1" as="geometry" />
        </mxCell>
        <mxCell id="884JPYB7_QhmBYuowr3j-192" style="edgeStyle=orthogonalEdgeStyle;rounded=0;orthogonalLoop=1;jettySize=auto;html=1;exitX=1;exitY=0.5;exitDx=0;exitDy=0;" edge="1" parent="1" source="884JPYB7_QhmBYuowr3j-163" target="884JPYB7_QhmBYuowr3j-191">
          <mxGeometry relative="1" as="geometry" />
        </mxCell>
        <mxCell id="884JPYB7_QhmBYuowr3j-163" value="Decision" style="rhombus;whiteSpace=wrap;html=1;fontColor=#000000;fillColor=#ffffc0;strokeColor=#ff0000;" vertex="1" parent="1">
          <mxGeometry x="-1320" y="1880" width="80" height="40" as="geometry" />
        </mxCell>
        <mxCell id="884JPYB7_QhmBYuowr3j-168" style="edgeStyle=orthogonalEdgeStyle;rounded=0;orthogonalLoop=1;jettySize=auto;html=1;exitX=0.5;exitY=1;exitDx=0;exitDy=0;entryX=0.5;entryY=0;entryDx=0;entryDy=0;" edge="1" parent="1" source="884JPYB7_QhmBYuowr3j-165" target="884JPYB7_QhmBYuowr3j-167">
          <mxGeometry relative="1" as="geometry" />
        </mxCell>
        <mxCell id="884JPYB7_QhmBYuowr3j-165" value="&lt;span style=&quot;font-family: Helvetica, &amp;quot;VP Default&amp;quot;; font-weight: 700; text-align: left; background-color: rgb(248, 249, 250);&quot;&gt;WhatsApp displays&amp;nbsp; &amp;nbsp; &amp;nbsp;( مراجعة الأوراق&amp;nbsp;)&lt;/span&gt;" style="rounded=1;whiteSpace=wrap;html=1;arcSize=40;fontColor=#000000;fillColor=#ffffc0;strokeColor=#ff0000;" vertex="1" parent="1">
          <mxGeometry x="-1642.5" y="1875" width="215" height="50" as="geometry" />
        </mxCell>
        <mxCell id="884JPYB7_QhmBYuowr3j-170" style="edgeStyle=orthogonalEdgeStyle;rounded=0;orthogonalLoop=1;jettySize=auto;html=1;exitX=0.5;exitY=1;exitDx=0;exitDy=0;entryX=0.5;entryY=0;entryDx=0;entryDy=0;" edge="1" parent="1" source="884JPYB7_QhmBYuowr3j-167" target="884JPYB7_QhmBYuowr3j-169">
          <mxGeometry relative="1" as="geometry" />
        </mxCell>
        <mxCell id="884JPYB7_QhmBYuowr3j-167" value="&lt;span style=&quot;font-family: Helvetica, &amp;quot;VP Default&amp;quot;; font-weight: 700; text-align: left; background-color: rgb(248, 249, 250);&quot;&gt;user clicks on&amp;nbsp; &amp;nbsp; &amp;nbsp;( مراجعة الأوراق&amp;nbsp;)&lt;/span&gt;" style="rounded=1;whiteSpace=wrap;html=1;arcSize=40;fontColor=#000000;fillColor=#ffffc0;strokeColor=#ff0000;" vertex="1" parent="1">
          <mxGeometry x="-1642.5" y="1960" width="215" height="50" as="geometry" />
        </mxCell>
        <mxCell id="884JPYB7_QhmBYuowr3j-172" style="edgeStyle=orthogonalEdgeStyle;rounded=0;orthogonalLoop=1;jettySize=auto;html=1;exitX=0.5;exitY=1;exitDx=0;exitDy=0;" edge="1" parent="1" source="884JPYB7_QhmBYuowr3j-169" target="884JPYB7_QhmBYuowr3j-171">
          <mxGeometry relative="1" as="geometry" />
        </mxCell>
        <mxCell id="884JPYB7_QhmBYuowr3j-169" value="&lt;span style=&quot;font-family: Helvetica, &amp;quot;VP Default&amp;quot;; font-weight: 700; text-align: left; background-color: rgb(248, 249, 250);&quot;&gt;WhatsApp displays: برجاء اختيار شركة التأمين&lt;/span&gt;" style="rounded=1;whiteSpace=wrap;html=1;arcSize=40;fontColor=#000000;fillColor=#ffffc0;strokeColor=#ff0000;" vertex="1" parent="1">
          <mxGeometry x="-1642.5" y="2050" width="215" height="50" as="geometry" />
        </mxCell>
        <mxCell id="884JPYB7_QhmBYuowr3j-174" style="edgeStyle=orthogonalEdgeStyle;rounded=0;orthogonalLoop=1;jettySize=auto;html=1;exitX=0.5;exitY=1;exitDx=0;exitDy=0;" edge="1" parent="1" source="884JPYB7_QhmBYuowr3j-171" target="884JPYB7_QhmBYuowr3j-173">
          <mxGeometry relative="1" as="geometry" />
        </mxCell>
        <mxCell id="884JPYB7_QhmBYuowr3j-171" value="&lt;div style=&quot;text-align: left;&quot;&gt;&lt;span style=&quot;color: light-dark(rgb(0, 0, 0), rgb(237, 237, 237)); background-color: rgb(248, 249, 250);&quot;&gt;&lt;font face=&quot;Helvetica, VP Default&quot;&gt;&lt;b&gt;&amp;nbsp; &amp;nbsp; &amp;nbsp; &amp;nbsp; &amp;nbsp; &amp;nbsp; &amp;nbsp; &amp;nbsp; &amp;nbsp; &amp;nbsp; &amp;nbsp; &amp;nbsp; &amp;nbsp; &amp;nbsp; &amp;nbsp; &amp;nbsp; &amp;nbsp; &amp;nbsp; &amp;nbsp; &amp;nbsp; &amp;nbsp; &amp;nbsp; WhatsApp Displays the following insurance companies:&amp;nbsp; &amp;nbsp; &amp;nbsp; &amp;nbsp; &amp;nbsp; &amp;nbsp; &amp;nbsp; &amp;nbsp; &amp;nbsp; &amp;nbsp; &amp;nbsp; &amp;nbsp; &amp;nbsp; &amp;nbsp; &amp;nbsp; &amp;nbsp; &amp;nbsp; &amp;nbsp; &amp;nbsp; &amp;nbsp; &amp;nbsp; &amp;nbsp; &amp;nbsp; &amp;nbsp; &amp;nbsp; &amp;nbsp; &amp;nbsp; &amp;nbsp; &amp;nbsp; &amp;nbsp; &amp;nbsp; &amp;nbsp; &amp;nbsp; &amp;nbsp; &amp;nbsp; &amp;nbsp; &amp;nbsp; &amp;nbsp; &amp;nbsp; &amp;nbsp; &amp;nbsp; &amp;nbsp; &amp;nbsp; &amp;nbsp; &amp;nbsp; &amp;nbsp; &amp;nbsp; &amp;nbsp; &amp;nbsp; &amp;nbsp; &amp;nbsp; &amp;nbsp; &amp;nbsp; &amp;nbsp; &amp;nbsp; &amp;nbsp; &amp;nbsp; &amp;nbsp; &amp;nbsp; &amp;nbsp; &amp;nbsp; &amp;nbsp; &amp;nbsp; &amp;nbsp; &amp;nbsp; &amp;nbsp; &amp;nbsp; &amp;nbsp; &amp;nbsp; &amp;nbsp; &amp;nbsp; &amp;nbsp; &amp;nbsp; &amp;nbsp; &amp;nbsp; &amp;nbsp; &amp;nbsp; &amp;nbsp; &amp;nbsp; &amp;nbsp; &amp;nbsp; &amp;nbsp; &amp;nbsp; &amp;nbsp; &amp;nbsp; &amp;nbsp; &amp;nbsp; &amp;nbsp; &amp;nbsp; &amp;nbsp; &amp;nbsp; &amp;nbsp; &amp;nbsp; &amp;nbsp; &amp;nbsp; &amp;nbsp; &amp;nbsp; &amp;nbsp; &amp;nbsp; &amp;nbsp; &amp;nbsp; &amp;nbsp; &amp;nbsp; &amp;nbsp; &amp;nbsp; &amp;nbsp; &amp;nbsp; &amp;nbsp; &amp;nbsp; &amp;nbsp; &amp;nbsp; &amp;nbsp; &amp;nbsp; &amp;nbsp; &amp;nbsp; &amp;nbsp; &amp;nbsp; &amp;nbsp; &amp;nbsp; &amp;nbsp; &amp;nbsp; &amp;nbsp; &amp;nbsp; &amp;nbsp; &amp;nbsp; &amp;nbsp; &amp;nbsp; &amp;nbsp; &amp;nbsp; &amp;nbsp; &amp;nbsp; &amp;nbsp; &amp;nbsp; &amp;nbsp; &amp;nbsp; &amp;nbsp; &amp;nbsp;&amp;nbsp;&lt;/b&gt;&lt;/font&gt;&lt;/span&gt;&lt;span style=&quot;background-color: transparent; color: light-dark(rgb(0, 0, 0), rgb(237, 237, 237)); text-align: center;&quot;&gt;&lt;b&gt;الوطنية للتأمين&lt;/b&gt;&lt;/span&gt;&lt;/div&gt;&lt;article data-scroll-anchor=&quot;true&quot; data-testid=&quot;conversation-turn-2&quot; dir=&quot;auto&quot; class=&quot;text-token-text-primary w-full&quot;&gt;&lt;div class=&quot;text-base my-auto mx-auto py-5 [--thread-content-margin:--spacing(4)] @[37rem]:[--thread-content-margin:--spacing(6)] @[72rem]:[--thread-content-margin:--spacing(16)] px-(--thread-content-margin)&quot;&gt;&lt;div tabindex=&quot;-1&quot; class=&quot;[--thread-content-max-width:32rem] @[34rem]:[--thread-content-max-width:40rem] @[64rem]:[--thread-content-max-width:48rem] mx-auto flex max-w-(--thread-content-max-width) flex-1 text-base gap-4 md:gap-5 lg:gap-6 group/turn-messages focus-visible:outline-hidden&quot;&gt;&lt;div class=&quot;group/conversation-turn relative flex w-full min-w-0 flex-col agent-turn&quot;&gt;&lt;div class=&quot;relative flex-col gap-1 md:gap-3&quot;&gt;&lt;div class=&quot;flex max-w-full flex-col grow&quot;&gt;&lt;div data-message-model-slug=&quot;gpt-4o&quot; class=&quot;min-h-8 text-message relative flex w-full flex-col items-end gap-2 text-start break-words whitespace-normal [.text-message+&amp;amp;]:mt-5&quot; dir=&quot;auto&quot; data-message-id=&quot;dd7efbe6-a253-40e8-94fc-fe59a6d55ff6&quot; data-message-author-role=&quot;assistant&quot;&gt;&lt;div class=&quot;flex w-full flex-col gap-1 empty:hidden first:pt-[3px]&quot;&gt;&lt;div class=&quot;markdown prose dark:prose-invert w-full break-words light&quot;&gt;&lt;p data-is-only-node=&quot;&quot; data-is-last-node=&quot;&quot; data-end=&quot;285&quot; data-start=&quot;0&quot;&gt;&lt;b&gt;أليانز&lt;br&gt;أروب&lt;br&gt;أكسا&lt;br&gt;تشاب&lt;br&gt;دلتا&lt;br&gt;التكافل المصري - إيجي تك&lt;br&gt;جي آي جي مصر للتكافل الحياة&lt;br&gt;ليبانو سويس&lt;br&gt;ميتلايف&lt;br&gt;مصر للتأمين&lt;br&gt;مصر للتأمين الحياة - تكافل&lt;br&gt;مصر للتأمين التكافلي&lt;br&gt;أورينت&lt;br&gt;رويال&lt;br&gt;سلامة للتأمين التكافلي&lt;br&gt;سروة للتأمين&lt;br&gt;سروة للتأمين الحياة&lt;br&gt;وثاق&lt;/b&gt;&lt;/p&gt;&lt;/div&gt;&lt;/div&gt;&lt;/div&gt;&lt;/div&gt;&lt;div class=&quot;flex justify-start&quot;&gt;&lt;div class=&quot;touch:-me-2 touch:-ms-3.5 -ms-2.5 -me-1 flex items-center p-1 select-none -mt-1 duration-[1.5s] focus-within:transition-none hover:transition-none pointer-events-none [mask-image:linear-gradient(to_right,black_33%,transparent_66%)] [mask-size:300%_100%] [mask-position:100%_0%] motion-safe:transition-[mask-position] group-hover/turn-messages:pointer-events-auto group-hover/turn-messages:[mask-position:0_0] group-focus-within/turn-messages:pointer-events-auto group-focus-within/turn-messages:[mask-position:0_0] has-data-[state=open]:pointer-events-auto has-data-[state=open]:[mask-position:0_0]&quot;&gt;&lt;button data-state=&quot;closed&quot; data-testid=&quot;copy-turn-action-button&quot; aria-selected=&quot;false&quot; aria-label=&quot;Copy&quot; class=&quot;text-token-text-secondary hover:bg-token-bg-secondary rounded-lg&quot;&gt;&lt;span class=&quot;touch:w-[38px] flex h-[30px] w-[30px] items-center justify-center&quot;&gt;&lt;svg class=&quot;icon-md-heavy&quot; xmlns=&quot;http://www.w3.org/2000/svg&quot; fill=&quot;none&quot; viewBox=&quot;0 0 24 24&quot; height=&quot;24&quot; width=&quot;24&quot;&gt;&lt;path fill=&quot;currentColor&quot; d=&quot;M7 5C7 3.34315 8.34315 2 10 2H19C20.6569 2 22 3.34315 22 5V14C22 15.6569 20.6569 17 19 17H17V19C17 20.6569 15.6569 22 14 22H5C3.34315 22 2 20.6569 2 19V10C2 8.34315 3.34315 7 5 7H7V5ZM9 7H14C15.6569 7 17 8.34315 17 10V15H19C19.5523 15 20 14.5523 20 14V5C20 4.44772 19.5523 4 19 4H10C9.44772 4 9 4.44772 9 5V7ZM5 9C4.44772 9 4 9.44772 4 10V19C4 19.5523 4.44772 20 5 20H14C14.5523 20 15 19.5523 15 19V10C15 9.44772 14.5523 9 14 9H5Z&quot; clip-rule=&quot;evenodd&quot; fill-rule=&quot;evenodd&quot;&gt;&lt;/path&gt;&lt;/svg&gt;&lt;/span&gt;&lt;/button&gt;&lt;button data-state=&quot;closed&quot; data-testid=&quot;voice-play-turn-action-button&quot; aria-selected=&quot;false&quot; aria-label=&quot;Read aloud&quot; class=&quot;text-token-text-secondary hover:bg-token-bg-secondary rounded-lg&quot;&gt;&lt;span class=&quot;touch:w-[38px] flex h-[30px] w-[30px] items-center justify-center&quot;&gt;&lt;svg class=&quot;icon-md-heavy&quot; xmlns=&quot;http://www.w3.org/2000/svg&quot; fill=&quot;none&quot; viewBox=&quot;0 0 24 24&quot; height=&quot;24&quot; width=&quot;24&quot;&gt;&lt;path fill=&quot;currentColor&quot; d=&quot;M11 4.9099C11 4.47485 10.4828 4.24734 10.1621 4.54132L6.67572 7.7372C6.49129 7.90626 6.25019 8.00005 6 8.00005H4C3.44772 8.00005 3 8.44776 3 9.00005V15C3 15.5523 3.44772 16 4 16H6C6.25019 16 6.49129 16.0938 6.67572 16.2629L10.1621 19.4588C10.4828 19.7527 11 19.5252 11 19.0902V4.9099ZM8.81069 3.06701C10.4142 1.59714 13 2.73463 13 4.9099V19.0902C13 21.2655 10.4142 22.403 8.81069 20.9331L5.61102 18H4C2.34315 18 1 16.6569 1 15V9.00005C1 7.34319 2.34315 6.00005 4 6.00005H5.61102L8.81069 3.06701ZM20.3166 6.35665C20.8019 6.09313 21.409 6.27296 21.6725 6.75833C22.5191 8.3176 22.9996 10.1042 22.9996 12.0001C22.9996 13.8507 22.5418 15.5974 21.7323 17.1302C21.4744 17.6185 20.8695 17.8054 20.3811 17.5475C19.8927 17.2896 19.7059 16.6846 19.9638 16.1962C20.6249 14.9444 20.9996 13.5175 20.9996 12.0001C20.9996 10.4458 20.6064 8.98627 19.9149 7.71262C19.6514 7.22726 19.8312 6.62017 20.3166 6.35665ZM15.7994 7.90049C16.241 7.5688 16.8679 7.65789 17.1995 8.09947C18.0156 9.18593 18.4996 10.5379 18.4996 12.0001C18.4996 13.3127 18.1094 14.5372 17.4385 15.5604C17.1357 16.0222 16.5158 16.1511 16.0539 15.8483C15.5921 15.5455 15.4632 14.9255 15.766 14.4637C16.2298 13.7564 16.4996 12.9113 16.4996 12.0001C16.4996 10.9859 16.1653 10.0526 15.6004 9.30063C15.2687 8.85905 15.3578 8.23218 15.7994 7.90049Z&quot; clip-rule=&quot;evenodd&quot; fill-rule=&quot;evenodd&quot;&gt;&lt;/path&gt;&lt;/svg&gt;&lt;/span&gt;&lt;/button&gt;&lt;button data-state=&quot;closed&quot; aria-selected=&quot;false&quot; aria-label=&quot;Edit in canvas&quot; class=&quot;text-token-text-secondary hover:bg-token-bg-secondary rounded-lg&quot;&gt;&lt;span class=&quot;touch:w-[38px] flex h-[30px] w-[30px] items-center justify-center&quot;&gt;&lt;svg class=&quot;icon-md&quot; xmlns=&quot;http://www.w3.org/2000/svg&quot; fill=&quot;none&quot; viewBox=&quot;0 0 24 24&quot; height=&quot;24&quot; width=&quot;24&quot;&gt;&lt;path stroke-linejoin=&quot;round&quot; stroke-linecap=&quot;round&quot; stroke=&quot;currentColor&quot; fill=&quot;currentColor&quot; d=&quot;M2.5 5.5C4.3 5.2 5.2 4 5.5 2.5C5.8 4 6.7 5.2 8.5 5.5C6.7 5.8 5.8 7 5.5 8.5C5.2 7 4.3 5.8 2.5 5.5Z&quot;&gt;&lt;/path&gt;&lt;path stroke-linejoin=&quot;round&quot; stroke-linecap=&quot;round&quot; stroke-width=&quot;2&quot; stroke=&quot;currentColor&quot; d=&quot;M5.66282 16.5231L5.18413 19.3952C5.12203 19.7678 5.09098 19.9541 5.14876 20.0888C5.19933 20.2067 5.29328 20.3007 5.41118 20.3512C5.54589 20.409 5.73218 20.378 6.10476 20.3159L8.97693 19.8372C9.72813 19.712 10.1037 19.6494 10.4542 19.521C10.7652 19.407 11.0608 19.2549 11.3343 19.068C11.6425 18.8575 11.9118 18.5882 12.4503 18.0497L20 10.5C21.3807 9.11929 21.3807 6.88071 20 5.5C18.6193 4.11929 16.3807 4.11929 15 5.5L7.45026 13.0497C6.91175 13.5882 6.6425 13.8575 6.43197 14.1657C6.24513 14.4392 6.09299 14.7348 5.97903 15.0458C5.85062 15.3963 5.78802 15.7719 5.66282 16.5231Z&quot;&gt;&lt;/path&gt;&lt;path stroke-linejoin=&quot;round&quot; stroke-linecap=&quot;round&quot; stroke-width=&quot;2&quot; stroke=&quot;currentColor&quot; d=&quot;M14.5 7L18.5 11&quot;&gt;&lt;/path&gt;&lt;/svg&gt;&lt;/span&gt;&lt;/button&gt;&lt;span class=&quot;hidden&quot;&gt;&lt;/span&gt;&lt;/div&gt;&lt;/div&gt;&lt;/div&gt;&lt;div class=&quot;absolute&quot;&gt;&lt;span data-state=&quot;closed&quot; class=&quot;&quot;&gt;&lt;button class=&quot;btn relative btn-secondary btn-small shadow-lg&quot;&gt;&lt;div class=&quot;flex items-center justify-center&quot;&gt;&lt;svg class=&quot;icon-md&quot; xmlns=&quot;http://www.w3.org/2000/svg&quot; fill=&quot;none&quot; viewBox=&quot;0 0 24 24&quot; height=&quot;24&quot; width=&quot;24&quot;&gt;&lt;path fill=&quot;currentColor&quot; d=&quot;M7.5 13.25C7.98703 13.25 8.45082 13.1505 8.87217 12.9708C8.46129 14.0478 7.62459 15.5792 6.35846 15.76C5.81173 15.8382 5.43183 16.3447 5.50993 16.8914C5.58804 17.4382 6.09457 17.8181 6.6413 17.7399C9.19413 17.3753 10.7256 14.4711 11.169 12.1909C11.4118 10.942 11.3856 9.58095 10.8491 8.44726C10.2424 7.16517 8.92256 6.24402 7.48508 6.25001C5.55895 6.25805 4 7.82196 4 9.74998C4 11.683 5.567 13.25 7.5 13.25Z&quot;&gt;&lt;/path&gt;&lt;path fill=&quot;currentColor&quot; d=&quot;M16.18 13.25C16.667 13.25 17.1308 13.1505 17.5522 12.9708C17.1413 14.0478 16.3046 15.5792 15.0385 15.76C14.4917 15.8382 14.1118 16.3447 14.1899 16.8914C14.268 17.4382 14.7746 17.8181 15.3213 17.7399C17.8741 17.3753 19.4056 14.4711 19.849 12.1909C20.0918 10.942 20.0656 9.58095 19.5291 8.44726C18.9224 7.16517 17.6026 6.24402 16.1651 6.25001C14.2389 6.25805 12.68 7.82196 12.68 9.74998C12.68 11.683 14.247 13.25 16.18 13.25Z&quot;&gt;&lt;/path&gt;&lt;/svg&gt;&lt;/div&gt;&lt;/button&gt;&lt;/span&gt;&lt;/div&gt;&lt;/div&gt;&lt;/div&gt;&lt;/div&gt;&lt;/article&gt;&lt;div class=&quot;pointer-events-none h-px w-px&quot; data-edge=&quot;true&quot; aria-hidden=&quot;true&quot;&gt;&lt;/div&gt;&lt;div style=&quot;text-align: left;&quot;&gt;&lt;span style=&quot;background-color: rgb(248, 249, 250); font-family: Helvetica, &amp;quot;VP Default&amp;quot;; font-weight: 700; color: light-dark(rgb(0, 0, 0), rgb(237, 237, 237));&quot;&gt;&amp;nbsp; &amp;nbsp; &amp;nbsp; &amp;nbsp; &amp;nbsp;&amp;nbsp;&lt;/span&gt;&lt;br&gt;&lt;/div&gt;" style="rounded=1;whiteSpace=wrap;html=1;arcSize=40;fontColor=#000000;fillColor=#ffffc0;strokeColor=#ff0000;" vertex="1" parent="1">
          <mxGeometry x="-1814.69" y="2170" width="559.38" height="430" as="geometry" />
        </mxCell>
        <mxCell id="884JPYB7_QhmBYuowr3j-176" style="edgeStyle=orthogonalEdgeStyle;rounded=0;orthogonalLoop=1;jettySize=auto;html=1;exitX=0.5;exitY=1;exitDx=0;exitDy=0;" edge="1" parent="1" source="884JPYB7_QhmBYuowr3j-173" target="884JPYB7_QhmBYuowr3j-175">
          <mxGeometry relative="1" as="geometry" />
        </mxCell>
        <mxCell id="884JPYB7_QhmBYuowr3j-173" value="&lt;span style=&quot;font-family: Helvetica, &amp;quot;VP Default&amp;quot;; font-weight: 700; text-align: left; background-color: rgb(248, 249, 250);&quot;&gt;User selects an insurance company&lt;/span&gt;" style="rounded=1;whiteSpace=wrap;html=1;arcSize=40;fontColor=#000000;fillColor=#ffffc0;strokeColor=#ff0000;" vertex="1" parent="1">
          <mxGeometry x="-1642.5" y="2650" width="215" height="50" as="geometry" />
        </mxCell>
        <mxCell id="884JPYB7_QhmBYuowr3j-178" style="edgeStyle=orthogonalEdgeStyle;rounded=0;orthogonalLoop=1;jettySize=auto;html=1;exitX=0.5;exitY=1;exitDx=0;exitDy=0;" edge="1" parent="1" source="884JPYB7_QhmBYuowr3j-175" target="884JPYB7_QhmBYuowr3j-177">
          <mxGeometry relative="1" as="geometry" />
        </mxCell>
        <mxCell id="884JPYB7_QhmBYuowr3j-175" value="&lt;span style=&quot;font-family: Helvetica, &amp;quot;VP Default&amp;quot;; font-weight: 700; text-align: left; background-color: rgb(248, 249, 250);&quot;&gt;WhatsApp display the selected insurance company&#39;s PDF&lt;/span&gt;" style="rounded=1;whiteSpace=wrap;html=1;arcSize=40;fontColor=#000000;fillColor=#ffffc0;strokeColor=#ff0000;" vertex="1" parent="1">
          <mxGeometry x="-1642.5" y="2740" width="215" height="50" as="geometry" />
        </mxCell>
        <mxCell id="884JPYB7_QhmBYuowr3j-177" value="&lt;span style=&quot;font-family: Helvetica, &amp;quot;VP Default&amp;quot;; font-weight: 700; text-align: left; background-color: rgb(248, 249, 250);&quot;&gt;WhatsApp displays: مرفق لسيادتكم الاوراق المطلوبة لكل نوع استرداد نقدي&amp;nbsp;&lt;/span&gt;" style="rounded=1;whiteSpace=wrap;html=1;arcSize=40;fontColor=#000000;fillColor=#ffffc0;strokeColor=#ff0000;" vertex="1" parent="1">
          <mxGeometry x="-1647.5" y="2840" width="225" height="60" as="geometry" />
        </mxCell>
        <mxCell id="884JPYB7_QhmBYuowr3j-182" style="edgeStyle=orthogonalEdgeStyle;rounded=0;orthogonalLoop=1;jettySize=auto;html=1;exitX=0.5;exitY=1;exitDx=0;exitDy=0;entryX=0.5;entryY=0;entryDx=0;entryDy=0;" edge="1" parent="1" source="884JPYB7_QhmBYuowr3j-179" target="884JPYB7_QhmBYuowr3j-181">
          <mxGeometry relative="1" as="geometry" />
        </mxCell>
        <mxCell id="884JPYB7_QhmBYuowr3j-179" value="&lt;span style=&quot;font-family: Helvetica, &amp;quot;VP Default&amp;quot;; font-weight: 700; text-align: left; background-color: rgb(248, 249, 250);&quot;&gt;&amp;nbsp; &amp;nbsp; &amp;nbsp; WhatsApp&amp;nbsp; displays:&amp;nbsp; &amp;nbsp; &amp;nbsp; &amp;nbsp; &amp;nbsp; &amp;nbsp; &amp;nbsp; &amp;nbsp; &amp;nbsp; &amp;nbsp; &amp;nbsp; &amp;nbsp; &amp;nbsp; &amp;nbsp; &amp;nbsp; &amp;nbsp; &amp;nbsp; &amp;nbsp; &amp;nbsp; &amp;nbsp; &amp;nbsp; &amp;nbsp; &amp;nbsp; &amp;nbsp;هل تحتاج للتواصل مع فريق الاسترداد النقدي&lt;/span&gt;" style="rounded=1;whiteSpace=wrap;html=1;arcSize=40;fontColor=#000000;fillColor=#ffffc0;strokeColor=#ff0000;" vertex="1" parent="1">
          <mxGeometry x="-1635" y="2950" width="225" height="60" as="geometry" />
        </mxCell>
        <mxCell id="884JPYB7_QhmBYuowr3j-180" style="edgeStyle=orthogonalEdgeStyle;rounded=0;orthogonalLoop=1;jettySize=auto;html=1;exitX=0.5;exitY=1;exitDx=0;exitDy=0;entryX=0.433;entryY=0.027;entryDx=0;entryDy=0;entryPerimeter=0;" edge="1" parent="1" source="884JPYB7_QhmBYuowr3j-177" target="884JPYB7_QhmBYuowr3j-179">
          <mxGeometry relative="1" as="geometry" />
        </mxCell>
        <mxCell id="884JPYB7_QhmBYuowr3j-184" style="edgeStyle=orthogonalEdgeStyle;rounded=0;orthogonalLoop=1;jettySize=auto;html=1;exitX=0;exitY=0.5;exitDx=0;exitDy=0;entryX=1;entryY=0.5;entryDx=0;entryDy=0;" edge="1" parent="1" source="884JPYB7_QhmBYuowr3j-181" target="884JPYB7_QhmBYuowr3j-183">
          <mxGeometry relative="1" as="geometry" />
        </mxCell>
        <mxCell id="884JPYB7_QhmBYuowr3j-189" style="edgeStyle=orthogonalEdgeStyle;rounded=0;orthogonalLoop=1;jettySize=auto;html=1;exitX=1;exitY=0.5;exitDx=0;exitDy=0;entryX=0;entryY=0.25;entryDx=0;entryDy=0;" edge="1" parent="1" source="884JPYB7_QhmBYuowr3j-181" target="884JPYB7_QhmBYuowr3j-188">
          <mxGeometry relative="1" as="geometry" />
        </mxCell>
        <mxCell id="884JPYB7_QhmBYuowr3j-181" value="Decision" style="rhombus;whiteSpace=wrap;html=1;fontColor=#000000;fillColor=#ffffc0;strokeColor=#ff0000;" vertex="1" parent="1">
          <mxGeometry x="-1562.5" y="3060" width="80" height="40" as="geometry" />
        </mxCell>
        <mxCell id="884JPYB7_QhmBYuowr3j-183" value="&lt;div style=&quot;text-align: left;&quot;&gt;&lt;span style=&quot;color: light-dark(rgb(0, 0, 0), rgb(237, 237, 237)); background-color: rgb(248, 249, 250);&quot;&gt;&lt;font face=&quot;Helvetica, VP Default&quot;&gt;&lt;b&gt;WhatsApp displays:&amp;nbsp;&lt;/b&gt;&lt;/font&gt;&lt;/span&gt;&lt;span style=&quot;background-color: transparent; color: light-dark(rgb(0, 0, 0), rgb(237, 237, 237)); text-align: center;&quot;&gt;&lt;b&gt;شكرًا لتواصلك مع شركة بيوند لوساطة التأمين&lt;/b&gt;&lt;/span&gt;&lt;/div&gt;" style="rounded=1;whiteSpace=wrap;html=1;arcSize=40;fontColor=#000000;fillColor=#ffffc0;strokeColor=#ff0000;" vertex="1" parent="1">
          <mxGeometry x="-1840" y="3055" width="215" height="50" as="geometry" />
        </mxCell>
        <mxCell id="884JPYB7_QhmBYuowr3j-185" value="&lt;span style=&quot;font-size: 18px;&quot;&gt;&lt;b&gt;لا&lt;/b&gt;&lt;/span&gt;" style="text;html=1;align=center;verticalAlign=middle;resizable=0;points=[];autosize=1;strokeColor=none;fillColor=none;" vertex="1" parent="1">
          <mxGeometry x="-1590" y="3050" width="30" height="40" as="geometry" />
        </mxCell>
        <mxCell id="884JPYB7_QhmBYuowr3j-186" value="&lt;div style=&quot;text-align: left;&quot;&gt;&lt;span style=&quot;color: light-dark(rgb(0, 0, 0), rgb(237, 237, 237)); background-color: rgb(248, 249, 250);&quot;&gt;&lt;font face=&quot;Helvetica, VP Default&quot;&gt;&lt;b&gt;Close chat&lt;/b&gt;&lt;/font&gt;&lt;/span&gt;&lt;/div&gt;" style="rounded=1;whiteSpace=wrap;html=1;arcSize=40;fontColor=#000000;fillColor=#ffffc0;strokeColor=#ff0000;" vertex="1" parent="1">
          <mxGeometry x="-1775" y="3160" width="100" height="40" as="geometry" />
        </mxCell>
        <mxCell id="884JPYB7_QhmBYuowr3j-187" style="edgeStyle=orthogonalEdgeStyle;rounded=0;orthogonalLoop=1;jettySize=auto;html=1;exitX=0.5;exitY=1;exitDx=0;exitDy=0;entryX=0.424;entryY=0.09;entryDx=0;entryDy=0;entryPerimeter=0;" edge="1" parent="1" source="884JPYB7_QhmBYuowr3j-183" target="884JPYB7_QhmBYuowr3j-186">
          <mxGeometry relative="1" as="geometry" />
        </mxCell>
        <mxCell id="884JPYB7_QhmBYuowr3j-225" style="edgeStyle=orthogonalEdgeStyle;rounded=0;orthogonalLoop=1;jettySize=auto;html=1;exitX=1;exitY=0.5;exitDx=0;exitDy=0;" edge="1" parent="1" source="884JPYB7_QhmBYuowr3j-188" target="884JPYB7_QhmBYuowr3j-224">
          <mxGeometry relative="1" as="geometry" />
        </mxCell>
        <mxCell id="884JPYB7_QhmBYuowr3j-188" value="&lt;span style=&quot;font-family: Helvetica, &amp;quot;VP Default&amp;quot;; font-weight: 700; text-align: left; background-color: rgb(248, 249, 250);&quot;&gt;WhatsApp displays:&amp;nbsp; &amp;nbsp; &amp;nbsp; &amp;nbsp; &amp;nbsp; &amp;nbsp; &amp;nbsp; &amp;nbsp; &amp;nbsp; &amp;nbsp; &amp;nbsp; &amp;nbsp; &amp;nbsp; &amp;nbsp; &amp;nbsp; &amp;nbsp; &amp;nbsp; &amp;nbsp; &amp;nbsp; &amp;nbsp; &amp;nbsp; &amp;nbsp; &amp;nbsp; &amp;nbsp; &amp;nbsp; &amp;nbsp; &amp;nbsp; &amp;nbsp; &amp;nbsp; &amp;nbsp; &amp;nbsp; &amp;nbsp; &amp;nbsp; &amp;nbsp; &amp;nbsp; &amp;nbsp; &amp;nbsp; &amp;nbsp; &amp;nbsp; &amp;nbsp; &amp;nbsp; &amp;nbsp; &amp;nbsp; سيتم الرد على سيادتكم في خلال يوم عمل من التاسعه صباحا الى الخامسة مساء من الأحد الى الخميس&amp;nbsp; &amp;nbsp; &amp;nbsp; &amp;nbsp; &amp;nbsp; &amp;nbsp; &amp;nbsp; &amp;nbsp; &amp;nbsp; &amp;nbsp; &amp;nbsp; &amp;nbsp; &amp;nbsp; &amp;nbsp; &amp;nbsp; &amp;nbsp; &amp;nbsp; &amp;nbsp; &amp;nbsp; &amp;nbsp; &amp;nbsp; &amp;nbsp; &amp;nbsp; &amp;nbsp; &amp;nbsp; &amp;nbsp; &amp;nbsp; &amp;nbsp; &amp;nbsp; &amp;nbsp; &amp;nbsp; &amp;nbsp; &amp;nbsp; &amp;nbsp; &amp;nbsp; &amp;nbsp; &amp;nbsp; &amp;nbsp; &amp;nbsp; &amp;nbsp; &amp;nbsp; &amp;nbsp; &amp;nbsp; &amp;nbsp; &amp;nbsp; &amp;nbsp; &amp;nbsp; &amp;nbsp; &amp;nbsp; &amp;nbsp; &amp;nbsp; &amp;nbsp; &amp;nbsp; &amp;nbsp; يرجى ارسال صورة الكارنيه الطبي المرتبط ب الاسترداد المطلوب في حالة عدم ارساله&lt;/span&gt;" style="rounded=1;whiteSpace=wrap;html=1;arcSize=40;fontColor=#000000;fillColor=#ffffc0;strokeColor=#ff0000;" vertex="1" parent="1">
          <mxGeometry x="-1440" y="3020" width="275" height="230" as="geometry" />
        </mxCell>
        <mxCell id="884JPYB7_QhmBYuowr3j-190" value="&lt;b&gt;&lt;font style=&quot;font-size: 18px;&quot;&gt;نعم&lt;/font&gt;&lt;/b&gt;" style="text;html=1;align=center;verticalAlign=middle;resizable=0;points=[];autosize=1;strokeColor=none;fillColor=none;" vertex="1" parent="1">
          <mxGeometry x="-1482.5" y="3040" width="40" height="40" as="geometry" />
        </mxCell>
        <mxCell id="884JPYB7_QhmBYuowr3j-191" value="&lt;span style=&quot;font-family: Helvetica, &amp;quot;VP Default&amp;quot;; font-weight: 700; text-align: left; background-color: rgb(248, 249, 250);&quot;&gt;WhatsApp displays&amp;nbsp; &amp;nbsp; (&amp;nbsp;&amp;nbsp;متابعة الاسترداد &amp;nbsp;)&lt;/span&gt;" style="rounded=1;whiteSpace=wrap;html=1;arcSize=40;fontColor=#000000;fillColor=#ffffc0;strokeColor=#ff0000;" vertex="1" parent="1">
          <mxGeometry x="-1180" y="1875" width="215" height="50" as="geometry" />
        </mxCell>
        <mxCell id="884JPYB7_QhmBYuowr3j-196" style="edgeStyle=orthogonalEdgeStyle;rounded=0;orthogonalLoop=1;jettySize=auto;html=1;exitX=0.5;exitY=1;exitDx=0;exitDy=0;" edge="1" parent="1" source="884JPYB7_QhmBYuowr3j-193" target="884JPYB7_QhmBYuowr3j-195">
          <mxGeometry relative="1" as="geometry" />
        </mxCell>
        <mxCell id="884JPYB7_QhmBYuowr3j-193" value="&lt;span style=&quot;font-family: Helvetica, &amp;quot;VP Default&amp;quot;; font-weight: 700; text-align: left; background-color: rgb(248, 249, 250);&quot;&gt;User clicks on&amp;nbsp; (م&lt;/span&gt;&lt;span style=&quot;font-family: Helvetica, &amp;quot;VP Default&amp;quot;; font-weight: 700; text-align: left; background-color: rgb(248, 249, 250);&quot;&gt;تابعة الاسترداد&amp;nbsp; )&lt;/span&gt;" style="rounded=1;whiteSpace=wrap;html=1;arcSize=40;fontColor=#000000;fillColor=#ffffc0;strokeColor=#ff0000;" vertex="1" parent="1">
          <mxGeometry x="-1200" y="1970" width="285" height="50" as="geometry" />
        </mxCell>
        <mxCell id="884JPYB7_QhmBYuowr3j-194" style="edgeStyle=orthogonalEdgeStyle;rounded=0;orthogonalLoop=1;jettySize=auto;html=1;exitX=0.5;exitY=1;exitDx=0;exitDy=0;entryX=0.454;entryY=-0.008;entryDx=0;entryDy=0;entryPerimeter=0;" edge="1" parent="1" source="884JPYB7_QhmBYuowr3j-191" target="884JPYB7_QhmBYuowr3j-193">
          <mxGeometry relative="1" as="geometry" />
        </mxCell>
        <mxCell id="884JPYB7_QhmBYuowr3j-199" style="edgeStyle=orthogonalEdgeStyle;rounded=0;orthogonalLoop=1;jettySize=auto;html=1;exitX=0.5;exitY=1;exitDx=0;exitDy=0;entryX=0.5;entryY=0;entryDx=0;entryDy=0;" edge="1" parent="1" source="884JPYB7_QhmBYuowr3j-195" target="884JPYB7_QhmBYuowr3j-198">
          <mxGeometry relative="1" as="geometry" />
        </mxCell>
        <mxCell id="884JPYB7_QhmBYuowr3j-195" value="&lt;span style=&quot;font-family: Helvetica, &amp;quot;VP Default&amp;quot;; font-weight: 700; text-align: left; background-color: rgb(248, 249, 250);&quot;&gt;WhatsApp displays ( برجاء اختيار شركة الخدمة&amp;nbsp;)&lt;/span&gt;" style="rounded=1;whiteSpace=wrap;html=1;arcSize=40;fontColor=#000000;fillColor=#ffffc0;strokeColor=#ff0000;" vertex="1" parent="1">
          <mxGeometry x="-1165" y="2060" width="215" height="50" as="geometry" />
        </mxCell>
        <mxCell id="884JPYB7_QhmBYuowr3j-201" style="edgeStyle=orthogonalEdgeStyle;rounded=0;orthogonalLoop=1;jettySize=auto;html=1;exitX=0.5;exitY=1;exitDx=0;exitDy=0;" edge="1" parent="1" source="884JPYB7_QhmBYuowr3j-198" target="884JPYB7_QhmBYuowr3j-200">
          <mxGeometry relative="1" as="geometry" />
        </mxCell>
        <mxCell id="884JPYB7_QhmBYuowr3j-198" value="&lt;span style=&quot;font-family: Helvetica, &amp;quot;VP Default&amp;quot;; font-weight: 700; text-align: left; background-color: rgb(248, 249, 250);&quot;&gt;&amp;nbsp; &amp;nbsp; &amp;nbsp; &amp;nbsp; &amp;nbsp; &amp;nbsp; &amp;nbsp; &amp;nbsp; &amp;nbsp; &amp;nbsp; &amp;nbsp; &amp;nbsp; &amp;nbsp; &amp;nbsp; &amp;nbsp; &amp;nbsp; &amp;nbsp; &amp;nbsp; WhatsApp displays:&amp;nbsp; &amp;nbsp; &amp;nbsp; &amp;nbsp; &amp;nbsp; &amp;nbsp; &amp;nbsp; &amp;nbsp; &amp;nbsp; &amp;nbsp; &amp;nbsp; &amp;nbsp; &amp;nbsp; &amp;nbsp; &amp;nbsp; &amp;nbsp; &amp;nbsp; &amp;nbsp; &amp;nbsp;&lt;/span&gt;&lt;b&gt;&lt;span style=&quot;font-family: Helvetica, &amp;quot;VP Default&amp;quot;; text-align: left; background-color: rgb(248, 249, 250);&quot;&gt;&amp;nbsp;&lt;/span&gt;&lt;span style=&quot;background-color: transparent; color: light-dark(rgb(0, 0, 0), rgb(237, 237, 237));&quot;&gt;أكسا&lt;/span&gt;&lt;/b&gt;&lt;article data-scroll-anchor=&quot;true&quot; data-testid=&quot;conversation-turn-2&quot; dir=&quot;auto&quot; class=&quot;text-token-text-primary w-full&quot;&gt;&lt;div class=&quot;text-base my-auto mx-auto py-5 [--thread-content-margin:--spacing(4)] @[37rem]:[--thread-content-margin:--spacing(6)] @[72rem]:[--thread-content-margin:--spacing(16)] px-(--thread-content-margin)&quot;&gt;&lt;div tabindex=&quot;-1&quot; class=&quot;[--thread-content-max-width:32rem] @[34rem]:[--thread-content-max-width:40rem] @[64rem]:[--thread-content-max-width:48rem] mx-auto flex max-w-(--thread-content-max-width) flex-1 text-base gap-4 md:gap-5 lg:gap-6 group/turn-messages focus-visible:outline-hidden&quot;&gt;&lt;div class=&quot;group/conversation-turn relative flex w-full min-w-0 flex-col agent-turn&quot;&gt;&lt;div class=&quot;relative flex-col gap-1 md:gap-3&quot;&gt;&lt;div class=&quot;flex max-w-full flex-col grow&quot;&gt;&lt;div data-message-model-slug=&quot;gpt-4o&quot; class=&quot;min-h-8 text-message relative flex w-full flex-col items-end gap-2 text-start break-words whitespace-normal [.text-message+&amp;amp;]:mt-5&quot; dir=&quot;auto&quot; data-message-id=&quot;b1e1c453-bf5a-4750-bf6d-d18a5231a953&quot; data-message-author-role=&quot;assistant&quot;&gt;&lt;div class=&quot;flex w-full flex-col gap-1 empty:hidden first:pt-[3px]&quot;&gt;&lt;div class=&quot;markdown prose dark:prose-invert w-full break-words light&quot;&gt;&lt;p data-is-only-node=&quot;&quot; data-is-last-node=&quot;&quot; data-end=&quot;132&quot; data-start=&quot;60&quot;&gt;&lt;b&gt;ميتلايف&lt;br data-end=&quot;77&quot; data-start=&quot;74&quot;&gt;&lt;br&gt;جلوب ميد&lt;br data-end=&quot;88&quot; data-start=&quot;85&quot;&gt;&lt;br&gt;نيكست كير&lt;br data-end=&quot;100&quot; data-start=&quot;97&quot;&gt;&lt;br&gt;ميد نت&lt;br data-end=&quot;109&quot; data-start=&quot;106&quot;&gt;&lt;br&gt;ميد رايت&lt;br data-end=&quot;120&quot; data-start=&quot;117&quot;&gt;&lt;br&gt;مصر هيلث كير&lt;/b&gt;&lt;/p&gt;&lt;/div&gt;&lt;/div&gt;&lt;/div&gt;&lt;/div&gt;&lt;div class=&quot;flex justify-start&quot;&gt;&lt;div class=&quot;touch:-me-2 touch:-ms-3.5 -ms-2.5 -me-1 flex items-center p-1 select-none -mt-1 duration-[1.5s] focus-within:transition-none hover:transition-none pointer-events-none [mask-image:linear-gradient(to_right,black_33%,transparent_66%)] [mask-size:300%_100%] [mask-position:100%_0%] motion-safe:transition-[mask-position] group-hover/turn-messages:pointer-events-auto group-hover/turn-messages:[mask-position:0_0] group-focus-within/turn-messages:pointer-events-auto group-focus-within/turn-messages:[mask-position:0_0] has-data-[state=open]:pointer-events-auto has-data-[state=open]:[mask-position:0_0]&quot;&gt;&lt;button data-state=&quot;closed&quot; data-testid=&quot;copy-turn-action-button&quot; aria-selected=&quot;false&quot; aria-label=&quot;Copy&quot; class=&quot;text-token-text-secondary hover:bg-token-bg-secondary rounded-lg&quot;&gt;&lt;span class=&quot;touch:w-[38px] flex h-[30px] w-[30px] items-center justify-center&quot;&gt;&lt;svg class=&quot;icon-md-heavy&quot; xmlns=&quot;http://www.w3.org/2000/svg&quot; fill=&quot;none&quot; viewBox=&quot;0 0 24 24&quot; height=&quot;24&quot; width=&quot;24&quot;&gt;&lt;path fill=&quot;currentColor&quot; d=&quot;M7 5C7 3.34315 8.34315 2 10 2H19C20.6569 2 22 3.34315 22 5V14C22 15.6569 20.6569 17 19 17H17V19C17 20.6569 15.6569 22 14 22H5C3.34315 22 2 20.6569 2 19V10C2 8.34315 3.34315 7 5 7H7V5ZM9 7H14C15.6569 7 17 8.34315 17 10V15H19C19.5523 15 20 14.5523 20 14V5C20 4.44772 19.5523 4 19 4H10C9.44772 4 9 4.44772 9 5V7ZM5 9C4.44772 9 4 9.44772 4 10V19C4 19.5523 4.44772 20 5 20H14C14.5523 20 15 19.5523 15 19V10C15 9.44772 14.5523 9 14 9H5Z&quot; clip-rule=&quot;evenodd&quot; fill-rule=&quot;evenodd&quot;&gt;&lt;/path&gt;&lt;/svg&gt;&lt;/span&gt;&lt;/button&gt;&lt;button data-state=&quot;closed&quot; data-testid=&quot;voice-play-turn-action-button&quot; aria-selected=&quot;false&quot; aria-label=&quot;Read aloud&quot; class=&quot;text-token-text-secondary hover:bg-token-bg-secondary rounded-lg&quot;&gt;&lt;span class=&quot;touch:w-[38px] flex h-[30px] w-[30px] items-center justify-center&quot;&gt;&lt;svg class=&quot;icon-md-heavy&quot; xmlns=&quot;http://www.w3.org/2000/svg&quot; fill=&quot;none&quot; viewBox=&quot;0 0 24 24&quot; height=&quot;24&quot; width=&quot;24&quot;&gt;&lt;path fill=&quot;currentColor&quot; d=&quot;M11 4.9099C11 4.47485 10.4828 4.24734 10.1621 4.54132L6.67572 7.7372C6.49129 7.90626 6.25019 8.00005 6 8.00005H4C3.44772 8.00005 3 8.44776 3 9.00005V15C3 15.5523 3.44772 16 4 16H6C6.25019 16 6.49129 16.0938 6.67572 16.2629L10.1621 19.4588C10.4828 19.7527 11 19.5252 11 19.0902V4.9099ZM8.81069 3.06701C10.4142 1.59714 13 2.73463 13 4.9099V19.0902C13 21.2655 10.4142 22.403 8.81069 20.9331L5.61102 18H4C2.34315 18 1 16.6569 1 15V9.00005C1 7.34319 2.34315 6.00005 4 6.00005H5.61102L8.81069 3.06701ZM20.3166 6.35665C20.8019 6.09313 21.409 6.27296 21.6725 6.75833C22.5191 8.3176 22.9996 10.1042 22.9996 12.0001C22.9996 13.8507 22.5418 15.5974 21.7323 17.1302C21.4744 17.6185 20.8695 17.8054 20.3811 17.5475C19.8927 17.2896 19.7059 16.6846 19.9638 16.1962C20.6249 14.9444 20.9996 13.5175 20.9996 12.0001C20.9996 10.4458 20.6064 8.98627 19.9149 7.71262C19.6514 7.22726 19.8312 6.62017 20.3166 6.35665ZM15.7994 7.90049C16.241 7.5688 16.8679 7.65789 17.1995 8.09947C18.0156 9.18593 18.4996 10.5379 18.4996 12.0001C18.4996 13.3127 18.1094 14.5372 17.4385 15.5604C17.1357 16.0222 16.5158 16.1511 16.0539 15.8483C15.5921 15.5455 15.4632 14.9255 15.766 14.4637C16.2298 13.7564 16.4996 12.9113 16.4996 12.0001C16.4996 10.9859 16.1653 10.0526 15.6004 9.30063C15.2687 8.85905 15.3578 8.23218 15.7994 7.90049Z&quot; clip-rule=&quot;evenodd&quot; fill-rule=&quot;evenodd&quot;&gt;&lt;/path&gt;&lt;/svg&gt;&lt;/span&gt;&lt;/button&gt;&lt;button data-state=&quot;closed&quot; aria-selected=&quot;false&quot; aria-label=&quot;Edit in canvas&quot; class=&quot;text-token-text-secondary hover:bg-token-bg-secondary rounded-lg&quot;&gt;&lt;span class=&quot;touch:w-[38px] flex h-[30px] w-[30px] items-center justify-center&quot;&gt;&lt;svg class=&quot;icon-md&quot; xmlns=&quot;http://www.w3.org/2000/svg&quot; fill=&quot;none&quot; viewBox=&quot;0 0 24 24&quot; height=&quot;24&quot; width=&quot;24&quot;&gt;&lt;path stroke-linejoin=&quot;round&quot; stroke-linecap=&quot;round&quot; stroke=&quot;currentColor&quot; fill=&quot;currentColor&quot; d=&quot;M2.5 5.5C4.3 5.2 5.2 4 5.5 2.5C5.8 4 6.7 5.2 8.5 5.5C6.7 5.8 5.8 7 5.5 8.5C5.2 7 4.3 5.8 2.5 5.5Z&quot;&gt;&lt;/path&gt;&lt;path stroke-linejoin=&quot;round&quot; stroke-linecap=&quot;round&quot; stroke-width=&quot;2&quot; stroke=&quot;currentColor&quot; d=&quot;M5.66282 16.5231L5.18413 19.3952C5.12203 19.7678 5.09098 19.9541 5.14876 20.0888C5.19933 20.2067 5.29328 20.3007 5.41118 20.3512C5.54589 20.409 5.73218 20.378 6.10476 20.3159L8.97693 19.8372C9.72813 19.712 10.1037 19.6494 10.4542 19.521C10.7652 19.407 11.0608 19.2549 11.3343 19.068C11.6425 18.8575 11.9118 18.5882 12.4503 18.0497L20 10.5C21.3807 9.11929 21.3807 6.88071 20 5.5C18.6193 4.11929 16.3807 4.11929 15 5.5L7.45026 13.0497C6.91175 13.5882 6.6425 13.8575 6.43197 14.1657C6.24513 14.4392 6.09299 14.7348 5.97903 15.0458C5.85062 15.3963 5.78802 15.7719 5.66282 16.5231Z&quot;&gt;&lt;/path&gt;&lt;path stroke-linejoin=&quot;round&quot; stroke-linecap=&quot;round&quot; stroke-width=&quot;2&quot; stroke=&quot;currentColor&quot; d=&quot;M14.5 7L18.5 11&quot;&gt;&lt;/path&gt;&lt;/svg&gt;&lt;/span&gt;&lt;/button&gt;&lt;span class=&quot;hidden&quot;&gt;&lt;/span&gt;&lt;/div&gt;&lt;/div&gt;&lt;/div&gt;&lt;div class=&quot;absolute&quot;&gt;&lt;span data-state=&quot;closed&quot; class=&quot;&quot;&gt;&lt;button class=&quot;btn relative btn-secondary btn-small shadow-lg&quot;&gt;&lt;div class=&quot;flex items-center justify-center&quot;&gt;&lt;svg class=&quot;icon-md&quot; xmlns=&quot;http://www.w3.org/2000/svg&quot; fill=&quot;none&quot; viewBox=&quot;0 0 24 24&quot; height=&quot;24&quot; width=&quot;24&quot;&gt;&lt;path fill=&quot;currentColor&quot; d=&quot;M7.5 13.25C7.98703 13.25 8.45082 13.1505 8.87217 12.9708C8.46129 14.0478 7.62459 15.5792 6.35846 15.76C5.81173 15.8382 5.43183 16.3447 5.50993 16.8914C5.58804 17.4382 6.09457 17.8181 6.6413 17.7399C9.19413 17.3753 10.7256 14.4711 11.169 12.1909C11.4118 10.942 11.3856 9.58095 10.8491 8.44726C10.2424 7.16517 8.92256 6.24402 7.48508 6.25001C5.55895 6.25805 4 7.82196 4 9.74998C4 11.683 5.567 13.25 7.5 13.25Z&quot;&gt;&lt;/path&gt;&lt;path fill=&quot;currentColor&quot; d=&quot;M16.18 13.25C16.667 13.25 17.1308 13.1505 17.5522 12.9708C17.1413 14.0478 16.3046 15.5792 15.0385 15.76C14.4917 15.8382 14.1118 16.3447 14.1899 16.8914C14.268 17.4382 14.7746 17.8181 15.3213 17.7399C17.8741 17.3753 19.4056 14.4711 19.849 12.1909C20.0918 10.942 20.0656 9.58095 19.5291 8.44726C18.9224 7.16517 17.6026 6.24402 16.1651 6.25001C14.2389 6.25805 12.68 7.82196 12.68 9.74998C12.68 11.683 14.247 13.25 16.18 13.25Z&quot;&gt;&lt;/path&gt;&lt;/svg&gt;&lt;/div&gt;&lt;/button&gt;&lt;/span&gt;&lt;/div&gt;&lt;/div&gt;&lt;/div&gt;&lt;/div&gt;&lt;/article&gt;&lt;div class=&quot;pointer-events-none h-px w-px&quot; data-edge=&quot;true&quot; aria-hidden=&quot;true&quot;&gt;&lt;/div&gt;" style="rounded=1;whiteSpace=wrap;html=1;arcSize=40;fontColor=#000000;fillColor=#ffffc0;strokeColor=#ff0000;" vertex="1" parent="1">
          <mxGeometry x="-1215" y="2160" width="365" height="340" as="geometry" />
        </mxCell>
        <mxCell id="884JPYB7_QhmBYuowr3j-204" style="edgeStyle=orthogonalEdgeStyle;rounded=0;orthogonalLoop=1;jettySize=auto;html=1;exitX=0.5;exitY=1;exitDx=0;exitDy=0;entryX=0.5;entryY=0;entryDx=0;entryDy=0;" edge="1" parent="1" source="884JPYB7_QhmBYuowr3j-200" target="884JPYB7_QhmBYuowr3j-203">
          <mxGeometry relative="1" as="geometry" />
        </mxCell>
        <mxCell id="884JPYB7_QhmBYuowr3j-200" value="&lt;span style=&quot;font-family: Helvetica, &amp;quot;VP Default&amp;quot;; font-weight: 700; text-align: left; background-color: rgb(248, 249, 250);&quot;&gt;User selects an Option&lt;/span&gt;" style="rounded=1;whiteSpace=wrap;html=1;arcSize=40;fontColor=#000000;fillColor=#ffffc0;strokeColor=#ff0000;" vertex="1" parent="1">
          <mxGeometry x="-1140" y="2560" width="215" height="50" as="geometry" />
        </mxCell>
        <mxCell id="884JPYB7_QhmBYuowr3j-209" style="edgeStyle=orthogonalEdgeStyle;rounded=0;orthogonalLoop=1;jettySize=auto;html=1;exitX=0.5;exitY=1;exitDx=0;exitDy=0;entryX=0.5;entryY=0;entryDx=0;entryDy=0;" edge="1" parent="1" source="884JPYB7_QhmBYuowr3j-202" target="884JPYB7_QhmBYuowr3j-208">
          <mxGeometry relative="1" as="geometry" />
        </mxCell>
        <mxCell id="884JPYB7_QhmBYuowr3j-202" value="&lt;span style=&quot;font-family: Helvetica, &amp;quot;VP Default&amp;quot;; font-weight: 700; text-align: left; background-color: rgb(248, 249, 250);&quot;&gt;WhatsApp displays:&amp;nbsp; &amp;nbsp; &amp;nbsp; &amp;nbsp; &amp;nbsp; &amp;nbsp; &amp;nbsp; &amp;nbsp; &amp;nbsp; &amp;nbsp; &amp;nbsp; &amp;nbsp; &amp;nbsp; &amp;nbsp; &amp;nbsp; &amp;nbsp; &amp;nbsp; &amp;nbsp; &amp;nbsp; &amp;nbsp; &amp;nbsp; &amp;nbsp; &amp;nbsp; &amp;nbsp; &amp;nbsp; &amp;nbsp; &amp;nbsp; &amp;nbsp; &amp;nbsp; &amp;nbsp; هل تم تقديم الأوراق على ابليكشن شركة الخدمة؟&lt;/span&gt;" style="rounded=1;whiteSpace=wrap;html=1;arcSize=40;fontColor=#000000;fillColor=#ffffc0;strokeColor=#ff0000;" vertex="1" parent="1">
          <mxGeometry x="-1365" y="2635" width="215" height="100" as="geometry" />
        </mxCell>
        <mxCell id="884JPYB7_QhmBYuowr3j-205" style="edgeStyle=orthogonalEdgeStyle;rounded=0;orthogonalLoop=1;jettySize=auto;html=1;exitX=0;exitY=0.5;exitDx=0;exitDy=0;entryX=1;entryY=0.5;entryDx=0;entryDy=0;" edge="1" parent="1" source="884JPYB7_QhmBYuowr3j-203" target="884JPYB7_QhmBYuowr3j-202">
          <mxGeometry relative="1" as="geometry" />
        </mxCell>
        <mxCell id="884JPYB7_QhmBYuowr3j-216" style="edgeStyle=orthogonalEdgeStyle;rounded=0;orthogonalLoop=1;jettySize=auto;html=1;exitX=1;exitY=0.5;exitDx=0;exitDy=0;entryX=1;entryY=0.5;entryDx=0;entryDy=0;" edge="1" parent="1" source="884JPYB7_QhmBYuowr3j-203" target="884JPYB7_QhmBYuowr3j-210">
          <mxGeometry relative="1" as="geometry" />
        </mxCell>
        <mxCell id="884JPYB7_QhmBYuowr3j-203" value="Is اكسا&amp;nbsp; the selected option" style="rhombus;whiteSpace=wrap;html=1;fontColor=#000000;fillColor=#ffffc0;strokeColor=#ff0000;" vertex="1" parent="1">
          <mxGeometry x="-1078.75" y="2650" width="92.5" height="70" as="geometry" />
        </mxCell>
        <mxCell id="884JPYB7_QhmBYuowr3j-206" value="&lt;b&gt;&lt;font style=&quot;font-size: 18px;&quot;&gt;NO&lt;/font&gt;&lt;/b&gt;" style="text;html=1;align=center;verticalAlign=middle;resizable=0;points=[];autosize=1;strokeColor=none;fillColor=none;" vertex="1" parent="1">
          <mxGeometry x="-1130" y="2650" width="50" height="40" as="geometry" />
        </mxCell>
        <mxCell id="884JPYB7_QhmBYuowr3j-211" style="edgeStyle=orthogonalEdgeStyle;rounded=0;orthogonalLoop=1;jettySize=auto;html=1;exitX=1;exitY=0.5;exitDx=0;exitDy=0;entryX=0.25;entryY=0;entryDx=0;entryDy=0;" edge="1" parent="1" source="884JPYB7_QhmBYuowr3j-208" target="884JPYB7_QhmBYuowr3j-210">
          <mxGeometry relative="1" as="geometry" />
        </mxCell>
        <mxCell id="884JPYB7_QhmBYuowr3j-212" style="edgeStyle=orthogonalEdgeStyle;rounded=0;orthogonalLoop=1;jettySize=auto;html=1;exitX=0.5;exitY=1;exitDx=0;exitDy=0;entryX=0;entryY=0.5;entryDx=0;entryDy=0;" edge="1" parent="1" source="884JPYB7_QhmBYuowr3j-208" target="884JPYB7_QhmBYuowr3j-210">
          <mxGeometry relative="1" as="geometry" />
        </mxCell>
        <mxCell id="884JPYB7_QhmBYuowr3j-208" value="Decision" style="rhombus;whiteSpace=wrap;html=1;fontColor=#000000;fillColor=#ffffc0;strokeColor=#ff0000;" vertex="1" parent="1">
          <mxGeometry x="-1303.75" y="2790" width="92.5" height="70" as="geometry" />
        </mxCell>
        <mxCell id="884JPYB7_QhmBYuowr3j-226" style="edgeStyle=orthogonalEdgeStyle;rounded=0;orthogonalLoop=1;jettySize=auto;html=1;exitX=0.75;exitY=1;exitDx=0;exitDy=0;" edge="1" parent="1" source="884JPYB7_QhmBYuowr3j-210" target="884JPYB7_QhmBYuowr3j-224">
          <mxGeometry relative="1" as="geometry" />
        </mxCell>
        <mxCell id="884JPYB7_QhmBYuowr3j-210" value="&lt;span style=&quot;font-family: Helvetica, &amp;quot;VP Default&amp;quot;; font-weight: 700; text-align: left; background-color: rgb(248, 249, 250);&quot;&gt;WhatsApp displays:&amp;nbsp; &amp;nbsp; &amp;nbsp; &amp;nbsp; &amp;nbsp; &amp;nbsp; &amp;nbsp; &amp;nbsp; &amp;nbsp; &amp;nbsp; &amp;nbsp; &amp;nbsp; &amp;nbsp; &amp;nbsp; &amp;nbsp; &amp;nbsp; &amp;nbsp; &amp;nbsp; &amp;nbsp; &amp;nbsp; &amp;nbsp; &amp;nbsp; &amp;nbsp; &amp;nbsp; &amp;nbsp; &amp;nbsp; &amp;nbsp; &amp;nbsp; &amp;nbsp; &amp;nbsp; &amp;nbsp; &amp;nbsp; &amp;nbsp; &amp;nbsp; &amp;nbsp; &amp;nbsp; &amp;nbsp; &amp;nbsp; &amp;nbsp; &amp;nbsp; &amp;nbsp; &amp;nbsp; &amp;nbsp; &amp;nbsp; &amp;nbsp; &amp;nbsp; &amp;nbsp;سيتم الرد على سيادتكم في خلال يوم عمل من التاسعه صباحا الى الخامسة مساء من الأحد الى الخميس&amp;nbsp; &amp;nbsp; &amp;nbsp; &amp;nbsp; &amp;nbsp; &amp;nbsp; &amp;nbsp; &amp;nbsp; &amp;nbsp; &amp;nbsp; &amp;nbsp; &amp;nbsp; &amp;nbsp; &amp;nbsp; &amp;nbsp; &amp;nbsp; &amp;nbsp; &amp;nbsp; &amp;nbsp; &amp;nbsp; &amp;nbsp; &amp;nbsp; &amp;nbsp; &amp;nbsp; &amp;nbsp; &amp;nbsp; &amp;nbsp; &amp;nbsp; &amp;nbsp; &amp;nbsp; &amp;nbsp; &amp;nbsp; &amp;nbsp; &amp;nbsp; &amp;nbsp; &amp;nbsp; &amp;nbsp; &amp;nbsp; &amp;nbsp; &amp;nbsp; &amp;nbsp; &amp;nbsp; &amp;nbsp; &amp;nbsp; &amp;nbsp; &amp;nbsp; &amp;nbsp; &amp;nbsp; &amp;nbsp; &amp;nbsp; &amp;nbsp; &amp;nbsp; &amp;nbsp; &amp;nbsp; يرجى ارسال صورة الكارنيه الطبي المرتبط ب الاسترداد المطلوب في حالة عدم ارساله&lt;/span&gt;" style="rounded=1;whiteSpace=wrap;html=1;arcSize=40;fontColor=#000000;fillColor=#ffffc0;strokeColor=#ff0000;" vertex="1" parent="1">
          <mxGeometry x="-1140" y="2810" width="222.5" height="230" as="geometry" />
        </mxCell>
        <mxCell id="884JPYB7_QhmBYuowr3j-213" value="&lt;b&gt;&lt;font style=&quot;font-size: 18px;&quot;&gt;لا&lt;/font&gt;&lt;/b&gt;" style="text;html=1;align=center;verticalAlign=middle;resizable=0;points=[];autosize=1;strokeColor=none;fillColor=none;" vertex="1" parent="1">
          <mxGeometry x="-1170" y="2760" width="30" height="40" as="geometry" />
        </mxCell>
        <mxCell id="884JPYB7_QhmBYuowr3j-214" value="&lt;b&gt;&lt;font style=&quot;font-size: 18px;&quot;&gt;نعم&lt;/font&gt;&lt;/b&gt;" style="text;html=1;align=center;verticalAlign=middle;resizable=0;points=[];autosize=1;strokeColor=none;fillColor=none;" vertex="1" parent="1">
          <mxGeometry x="-1195" y="2890" width="40" height="40" as="geometry" />
        </mxCell>
        <mxCell id="884JPYB7_QhmBYuowr3j-217" value="&lt;b&gt;&lt;font style=&quot;font-size: 18px;&quot;&gt;YES&lt;/font&gt;&lt;/b&gt;" style="text;html=1;align=center;verticalAlign=middle;resizable=0;points=[];autosize=1;strokeColor=none;fillColor=none;" vertex="1" parent="1">
          <mxGeometry x="-965" y="2640" width="60" height="40" as="geometry" />
        </mxCell>
        <mxCell id="884JPYB7_QhmBYuowr3j-223" style="edgeStyle=orthogonalEdgeStyle;rounded=0;orthogonalLoop=1;jettySize=auto;html=1;exitX=0.5;exitY=1;exitDx=0;exitDy=0;" edge="1" parent="1" source="884JPYB7_QhmBYuowr3j-219" target="884JPYB7_QhmBYuowr3j-222">
          <mxGeometry relative="1" as="geometry" />
        </mxCell>
        <mxCell id="884JPYB7_QhmBYuowr3j-219" value="&lt;div style=&quot;text-align: left;&quot;&gt;&lt;span style=&quot;color: light-dark(rgb(0, 0, 0), rgb(237, 237, 237)); background-color: rgb(248, 249, 250);&quot;&gt;&lt;font face=&quot;Helvetica, VP Default&quot;&gt;&lt;b&gt;Assign to Reimbursement team&lt;/b&gt;&lt;/font&gt;&lt;/span&gt;&lt;/div&gt;" style="rounded=1;whiteSpace=wrap;html=1;arcSize=40;fontColor=#000000;fillColor=#ffffc0;strokeColor=#ff0000;" vertex="1" parent="1">
          <mxGeometry x="-1015" y="1380" width="195" height="90" as="geometry" />
        </mxCell>
        <mxCell id="884JPYB7_QhmBYuowr3j-220" style="edgeStyle=orthogonalEdgeStyle;rounded=0;orthogonalLoop=1;jettySize=auto;html=1;exitX=1;exitY=0.75;exitDx=0;exitDy=0;entryX=0.016;entryY=0.631;entryDx=0;entryDy=0;entryPerimeter=0;" edge="1" parent="1" source="884JPYB7_QhmBYuowr3j-122" target="884JPYB7_QhmBYuowr3j-219">
          <mxGeometry relative="1" as="geometry" />
        </mxCell>
        <mxCell id="884JPYB7_QhmBYuowr3j-222" value="&lt;div style=&quot;text-align: left;&quot;&gt;&lt;span style=&quot;color: light-dark(rgb(0, 0, 0), rgb(237, 237, 237)); background-color: rgb(248, 249, 250);&quot;&gt;&lt;font face=&quot;Helvetica, VP Default&quot;&gt;&lt;b&gt;Close chat&lt;/b&gt;&lt;/font&gt;&lt;/span&gt;&lt;/div&gt;" style="rounded=1;whiteSpace=wrap;html=1;arcSize=40;fontColor=#000000;fillColor=#ffffc0;strokeColor=#ff0000;" vertex="1" parent="1">
          <mxGeometry x="-967.5" y="1510" width="100" height="40" as="geometry" />
        </mxCell>
        <mxCell id="884JPYB7_QhmBYuowr3j-228" style="edgeStyle=orthogonalEdgeStyle;rounded=0;orthogonalLoop=1;jettySize=auto;html=1;exitX=0.5;exitY=1;exitDx=0;exitDy=0;entryX=0.5;entryY=0;entryDx=0;entryDy=0;" edge="1" parent="1" source="884JPYB7_QhmBYuowr3j-224" target="884JPYB7_QhmBYuowr3j-227">
          <mxGeometry relative="1" as="geometry" />
        </mxCell>
        <mxCell id="884JPYB7_QhmBYuowr3j-224" value="&lt;div style=&quot;text-align: left;&quot;&gt;&lt;span style=&quot;color: light-dark(rgb(0, 0, 0), rgb(237, 237, 237)); background-color: rgb(248, 249, 250);&quot;&gt;&lt;font face=&quot;Helvetica, VP Default&quot;&gt;&lt;b&gt;Assign to Reimbursement team&lt;/b&gt;&lt;/font&gt;&lt;/span&gt;&lt;/div&gt;" style="rounded=1;whiteSpace=wrap;html=1;arcSize=40;fontColor=#000000;fillColor=#ffffc0;strokeColor=#ff0000;" vertex="1" parent="1">
          <mxGeometry x="-1080" y="3110" width="195" height="90" as="geometry" />
        </mxCell>
        <mxCell id="884JPYB7_QhmBYuowr3j-227" value="&lt;div style=&quot;text-align: left;&quot;&gt;&lt;span style=&quot;color: light-dark(rgb(0, 0, 0), rgb(237, 237, 237)); background-color: rgb(248, 249, 250);&quot;&gt;&lt;font face=&quot;Helvetica, VP Default&quot;&gt;&lt;b&gt;Close chat&lt;/b&gt;&lt;/font&gt;&lt;/span&gt;&lt;/div&gt;" style="rounded=1;whiteSpace=wrap;html=1;arcSize=40;fontColor=#000000;fillColor=#ffffc0;strokeColor=#ff0000;" vertex="1" parent="1">
          <mxGeometry x="-1025" y="3230" width="100" height="40" as="geometry" />
        </mxCell>
      </root>
    </mxGraphModel>
  </diagram>
</mxfile>
